<?xml version="1.0" encoding="UTF-8"?>
<!DOCTYPE svg PUBLIC "-//W3C//DTD SVG 1.1//EN" "http://www.w3.org/Graphics/SVG/1.1/DTD/svg11.dtd">
<svg xmlns="http://www.w3.org/2000/svg" version="1.1" width="512px" height="512px" style="shape-rendering:geometricPrecision; text-rendering:geometricPrecision; image-rendering:optimizeQuality; fill-rule:evenodd; clip-rule:evenodd" xmlns:xlink="http://www.w3.org/1999/xlink">
<g><path style="opacity:0.989" fill="#28f29a" d="M 382.5,55.5 C 297.998,55.8327 213.665,55.4993 129.5,54.5C 163.122,33.9084 198.789,29.7418 236.5,42C 243.082,44.3574 249.416,47.1907 255.5,50.5C 285.712,34.5605 317.379,31.0605 350.5,40C 362.176,43.3396 372.843,48.5063 382.5,55.5 Z"/></g>
<g><path style="opacity:0.997" fill="#27ef9e" d="M 129.5,54.5 C 213.665,55.4993 297.998,55.8327 382.5,55.5C 390.091,60.5559 397.258,66.2226 404,72.5C 404.692,73.4368 404.525,74.1034 403.5,74.5C 305.167,73.8333 206.833,73.1667 108.5,72.5C 114.886,65.7805 121.886,59.7805 129.5,54.5 Z"/></g>
<g><path style="opacity:0.987" fill="#26eca1" d="M 108.5,72.5 C 206.833,73.1667 305.167,73.8333 403.5,74.5C 402.674,77.4848 401.341,80.1515 399.5,82.5C 382.658,82.1702 365.992,82.5035 349.5,83.5C 334.675,76.9304 319.342,74.7637 303.5,77C 300.964,79.705 298.297,82.205 295.5,84.5C 284.854,83.1678 273.854,82.5011 262.5,82.5C 251.328,82.5001 240.328,82.8335 229.5,83.5C 206.945,73.2866 184.278,73.2866 161.5,83.5C 140.931,82.1744 120.264,82.1744 99.5,83.5C 101.785,79.2733 104.785,75.6067 108.5,72.5 Z"/></g>
<g><path style="opacity:0.988" fill="#24e9a5" d="M 161.5,83.5 C 150.033,89.6305 140.033,97.6305 131.5,107.5C 116.167,107.5 100.833,107.5 85.5,107.5C 86.4281,103.638 87.9281,99.9712 90,96.5C 92.6991,91.7442 95.8658,87.4109 99.5,83.5C 120.264,82.1744 140.931,82.1744 161.5,83.5 Z"/></g>
<g><path style="opacity:0.994" fill="#24e9a5" d="M 295.5,84.5 C 288.167,92.5 280.5,100.167 272.5,107.5C 253.326,107.83 234.326,107.497 215.5,106.5C 221.631,99.8685 227.964,93.3685 234.5,87C 232.767,85.8111 231.1,84.6444 229.5,83.5C 240.328,82.8335 251.328,82.5001 262.5,82.5C 273.854,82.5011 284.854,83.1678 295.5,84.5 Z"/></g>
<g><path style="opacity:0.989" fill="#24e9a5" d="M 399.5,82.5 C 397.619,86.6073 396.619,90.9406 396.5,95.5C 396.331,99.8171 397.331,103.817 399.5,107.5C 385.167,107.5 370.833,107.5 356.5,107.5C 355.867,100.555 355.2,93.5548 354.5,86.5C 352.604,85.7255 350.937,84.7255 349.5,83.5C 365.992,82.5035 382.658,82.1702 399.5,82.5 Z"/></g>
<g><path style="opacity:0.985" fill="#21e4ab" d="M 85.5,107.5 C 100.833,107.5 116.167,107.5 131.5,107.5C 128.802,111.726 126.469,116.226 124.5,121C 129.327,124.926 133.994,129.092 138.5,133.5C 118.167,133.5 97.8333,133.5 77.5,133.5C 78.3846,124.186 81.0513,115.519 85.5,107.5 Z"/></g>
<g><path style="opacity:0.991" fill="#21e4ab" d="M 215.5,106.5 C 234.326,107.497 253.326,107.83 272.5,107.5C 265.369,115.132 258.036,122.632 250.5,130C 252.066,130.608 253.4,131.442 254.5,132.5C 232.833,133.833 211.167,133.833 189.5,132.5C 197.833,123.5 206.5,114.833 215.5,106.5 Z"/></g>
<g><path style="opacity:0.985" fill="#21e4ab" d="M 356.5,107.5 C 370.833,107.5 385.167,107.5 399.5,107.5C 402.293,110.403 405.626,112.569 409.5,114C 416.437,115.288 423.437,115.788 430.5,115.5C 431.758,121.455 432.758,127.455 433.5,133.5C 411.833,133.5 390.167,133.5 368.5,133.5C 362.018,126.087 358.018,117.421 356.5,107.5 Z"/></g>
<g><path style="opacity:0.991" fill="#20e0b0" d="M 77.5,133.5 C 97.8333,133.5 118.167,133.5 138.5,133.5C 142.471,136.776 145.471,140.776 147.5,145.5C 123.092,145.177 98.7587,145.51 74.5,146.5C 75.1368,141.965 76.1368,137.632 77.5,133.5 Z"/></g>
<g><path style="opacity:0.994" fill="#20e0b0" d="M 189.5,132.5 C 211.167,133.833 232.833,133.833 254.5,132.5C 262.818,135.992 270.818,139.992 278.5,144.5C 249.338,145.498 220.005,145.831 190.5,145.5C 187.035,144.603 184.035,142.936 181.5,140.5C 183.854,137.479 186.521,134.812 189.5,132.5 Z"/></g>
<g><path style="opacity:0.981" fill="#20e0b0" d="M 368.5,133.5 C 390.167,133.5 411.833,133.5 433.5,133.5C 434.687,136.946 435.354,140.613 435.5,144.5C 417.735,145.154 400.069,145.821 382.5,146.5C 377.206,142.873 372.539,138.54 368.5,133.5 Z"/></g>
<g><path style="opacity:0.979" fill="#1eddb3" d="M 278.5,144.5 C 287.612,148.222 296.279,152.722 304.5,158C 303.623,160.253 302.623,162.419 301.5,164.5C 277.167,164.5 252.833,164.5 228.5,164.5C 215.516,158.675 202.849,152.341 190.5,145.5C 220.005,145.831 249.338,145.498 278.5,144.5 Z"/></g>
<g><path style="opacity:0.988" fill="#1eddb3" d="M 435.5,144.5 C 435.5,150.833 435.5,157.167 435.5,163.5C 421.912,164.481 408.246,164.815 394.5,164.5C 394.666,160.486 394.499,156.486 394,152.5C 389.935,150.885 386.102,148.885 382.5,146.5C 400.069,145.821 417.735,145.154 435.5,144.5 Z"/></g>
<g><path style="opacity:0.984" fill="#1eddb3" d="M 147.5,145.5 C 152.329,152.654 154.996,160.654 155.5,169.5C 141.833,169.5 128.167,169.5 114.5,169.5C 112.018,163.52 107.685,159.353 101.5,157C 92.348,155.945 83.1813,155.112 74,154.5C 73.5,154.167 73,153.833 72.5,153.5C 73.1702,151.137 73.8368,148.804 74.5,146.5C 98.7587,145.51 123.092,145.177 147.5,145.5 Z"/></g>
<g><path style="opacity:0.986" fill="#1cd8b9" d="M 114.5,169.5 C 128.167,169.5 141.833,169.5 155.5,169.5C 155.666,175.176 155.499,180.843 155,186.5C 154.802,188.382 154.302,190.048 153.5,191.5C 138.676,190.504 123.676,190.171 108.5,190.5C 113.926,184.574 115.926,177.574 114.5,169.5 Z"/></g>
<g><path style="opacity:0.963" fill="#1cd9b8" d="M 228.5,164.5 C 252.833,164.5 277.167,164.5 301.5,164.5C 296.842,174.485 291.675,184.152 286,193.5C 266.555,184.194 247.388,174.528 228.5,164.5 Z"/></g>
<g><path style="opacity:0.983" fill="#1cd8b8" d="M 435.5,163.5 C 435.095,173.18 433.428,182.513 430.5,191.5C 417.01,190.504 403.344,190.171 389.5,190.5C 391.165,181.839 392.832,173.172 394.5,164.5C 408.246,164.815 421.912,164.481 435.5,163.5 Z"/></g>
<g><path style="opacity:0.976" fill="#1ad5bc" d="M 108.5,190.5 C 123.676,190.171 138.676,190.504 153.5,191.5C 153.267,194.542 152.267,197.208 150.5,199.5C 128.167,199.5 105.833,199.5 83.5,199.5C 92.0094,197.107 100.343,194.107 108.5,190.5 Z"/></g>
<g><path style="opacity:0.984" fill="#1ad5bc" d="M 389.5,190.5 C 403.344,190.171 417.01,190.504 430.5,191.5C 430.435,194.428 429.768,197.095 428.5,199.5C 414.656,199.829 400.99,199.496 387.5,198.5C 387.565,195.572 388.232,192.905 389.5,190.5 Z"/></g>
<g><path style="opacity:0.99" fill="#19d2bf" d="M 83.5,199.5 C 105.833,199.5 128.167,199.5 150.5,199.5C 148.076,206.027 144.409,211.693 139.5,216.5C 121.5,216.5 103.5,216.5 85.5,216.5C 84.7417,211.631 83.7417,206.798 82.5,202C 82.528,200.93 82.8614,200.097 83.5,199.5 Z"/></g>
<g><path style="opacity:0.986" fill="#19d2bf" d="M 387.5,198.5 C 400.99,199.496 414.656,199.829 428.5,199.5C 427.66,205.195 426.66,210.861 425.5,216.5C 411.5,216.5 397.5,216.5 383.5,216.5C 384.231,210.252 385.565,204.252 387.5,198.5 Z"/></g>
<g><path style="opacity:0.986" fill="#18cfc3" d="M 85.5,216.5 C 103.5,216.5 121.5,216.5 139.5,216.5C 137.166,219.666 134.333,222.333 131,224.5C 130.506,226.134 130.34,227.801 130.5,229.5C 117.01,230.496 103.344,230.829 89.5,230.5C 88.1855,225.921 86.8522,221.254 85.5,216.5 Z"/></g>
<g><path style="opacity:0.987" fill="#18cfc3" d="M 383.5,216.5 C 397.5,216.5 411.5,216.5 425.5,216.5C 424.148,221.254 422.814,225.921 421.5,230.5C 407.5,230.5 393.5,230.5 379.5,230.5C 380.539,225.666 381.872,220.999 383.5,216.5 Z"/></g>
<g><path style="opacity:0.985" fill="#16cdc6" d="M 130.5,229.5 C 132.26,233.547 133.26,237.88 133.5,242.5C 119.5,242.5 105.5,242.5 91.5,242.5C 90.8333,238.5 90.1667,234.5 89.5,230.5C 103.344,230.829 117.01,230.496 130.5,229.5 Z"/></g>
<g><path style="opacity:0.986" fill="#16cdc6" d="M 379.5,230.5 C 393.5,230.5 407.5,230.5 421.5,230.5C 420.833,234.5 420.167,238.5 419.5,242.5C 405.5,242.5 391.5,242.5 377.5,242.5C 377.848,238.443 378.514,234.443 379.5,230.5 Z"/></g>
<g><path style="opacity:0.941" fill="#16ccc6" d="M 283.5,242.5 C 264.992,242.83 246.659,242.497 228.5,241.5C 244.449,234.502 260.783,233.669 277.5,239C 279.727,239.941 281.727,241.108 283.5,242.5 Z"/></g>
<g><path style="opacity:0.987" fill="#15c9ca" d="M 228.5,241.5 C 246.659,242.497 264.992,242.83 283.5,242.5C 293.708,247.373 301.708,254.706 307.5,264.5C 290.239,265.16 272.906,265.493 255.5,265.5C 238.153,265.5 221.153,264.833 204.5,263.5C 210.251,253.751 218.251,246.417 228.5,241.5 Z"/></g>
<g><path style="opacity:0.985" fill="#15c9ca" d="M 91.5,242.5 C 105.5,242.5 119.5,242.5 133.5,242.5C 135.738,249.994 137.738,257.661 139.5,265.5C 125.421,265.815 111.421,265.482 97.5,264.5C 95.3848,257.288 93.3848,249.954 91.5,242.5 Z"/></g>
<g><path style="opacity:0.984" fill="#15c9ca" d="M 377.5,242.5 C 391.5,242.5 405.5,242.5 419.5,242.5C 417.5,250.167 415.5,257.833 413.5,265.5C 399.5,265.5 385.5,265.5 371.5,265.5C 373.262,257.661 375.262,249.994 377.5,242.5 Z"/></g>
<g><path style="opacity:0.993" fill="#13c6cd" d="M 204.5,263.5 C 221.153,264.833 238.153,265.5 255.5,265.5C 272.906,265.493 290.239,265.16 307.5,264.5C 308.773,266.713 309.773,269.046 310.5,271.5C 273.67,272.498 236.67,272.832 199.5,272.5C 200.929,269.304 202.595,266.304 204.5,263.5 Z"/></g>
<g><path style="opacity:0.98" fill="#13c5cf" d="M 97.5,264.5 C 111.421,265.482 125.421,265.815 139.5,265.5C 140.818,270.773 141.818,276.107 142.5,281.5C 116.995,281.831 91.6612,281.498 66.5,280.5C 77.2025,277.105 88.2025,275.105 99.5,274.5C 98.198,271.292 97.5313,267.959 97.5,264.5 Z"/></g>
<g><path style="opacity:0.987" fill="#12c5cf" d="M 310.5,271.5 C 312.404,274.534 313.738,277.867 314.5,281.5C 299.5,281.5 284.5,281.5 269.5,281.5C 260.167,274.833 250.833,274.833 241.5,281.5C 226.5,281.5 211.5,281.5 196.5,281.5C 197.304,278.421 198.304,275.421 199.5,272.5C 236.67,272.832 273.67,272.498 310.5,271.5 Z"/></g>
<g><path style="opacity:0.979" fill="#13c5cf" d="M 371.5,265.5 C 385.5,265.5 399.5,265.5 413.5,265.5C 413.308,268.601 412.642,271.601 411.5,274.5C 423.661,275.023 435.328,277.356 446.5,281.5C 420.5,281.5 394.5,281.5 368.5,281.5C 369.182,276.107 370.182,270.773 371.5,265.5 Z"/></g>
<g><path style="opacity:0.992" fill="#11c2d2" d="M 66.5,280.5 C 91.6612,281.498 116.995,281.831 142.5,281.5C 144.579,286.878 145.913,292.544 146.5,298.5C 109.337,299.498 72.0037,299.832 34.5,299.5C 43.6144,290.754 54.2811,284.421 66.5,280.5 Z"/></g>
<g><path style="opacity:0.987" fill="#11c2d2" d="M 196.5,281.5 C 211.5,281.5 226.5,281.5 241.5,281.5C 237.396,286.747 235.396,292.747 235.5,299.5C 222.167,299.5 208.833,299.5 195.5,299.5C 195.303,293.455 195.637,287.455 196.5,281.5 Z"/></g>
<g><path style="opacity:0.992" fill="#11c2d2" d="M 269.5,281.5 C 284.5,281.5 299.5,281.5 314.5,281.5C 315.363,287.455 315.697,293.455 315.5,299.5C 302.167,299.5 288.833,299.5 275.5,299.5C 275.604,292.747 273.604,286.747 269.5,281.5 Z"/></g>
<g><path style="opacity:0.992" fill="#11c2d2" d="M 368.5,281.5 C 394.5,281.5 420.5,281.5 446.5,281.5C 457.452,285.149 467.118,290.816 475.5,298.5C 438.264,299.173 400.931,299.839 363.5,300.5C 364.801,293.963 366.468,287.63 368.5,281.5 Z"/></g>
<g><path style="opacity:0.99" fill="#0fbed7" d="M 475.5,298.5 C 484.953,305.955 492.62,314.955 498.5,325.5C 480.5,325.5 462.5,325.5 444.5,325.5C 431.328,317.664 417.162,314.664 402,316.5C 401.594,319.742 400.761,322.742 399.5,325.5C 385.5,325.5 371.5,325.5 357.5,325.5C 359.652,317.224 361.652,308.891 363.5,300.5C 400.931,299.839 438.264,299.173 475.5,298.5 Z"/></g>
<g><path style="opacity:0.99" fill="#0fbed7" d="M 146.5,298.5 C 149.101,306.913 151.101,315.579 152.5,324.5C 139.01,325.496 125.344,325.829 111.5,325.5C 110.239,322.742 109.406,319.742 109,316.5C 92.1909,314.327 77.0243,318.327 63.5,328.5C 46.5322,326.514 29.1989,325.847 11.5,326.5C 17.3804,315.955 25.0471,306.955 34.5,299.5C 72.0037,299.832 109.337,299.498 146.5,298.5 Z"/></g>
<g><path style="opacity:1" fill="#0fbed7" d="M 195.5,299.5 C 208.833,299.5 222.167,299.5 235.5,299.5C 235.5,308.167 235.5,316.833 235.5,325.5C 222.167,325.5 208.833,325.5 195.5,325.5C 195.5,316.833 195.5,308.167 195.5,299.5 Z"/></g>
<g><path style="opacity:1" fill="#0fbed7" d="M 275.5,299.5 C 288.833,299.5 302.167,299.5 315.5,299.5C 315.5,308.167 315.5,316.833 315.5,325.5C 302.167,325.5 288.833,325.5 275.5,325.5C 275.5,316.833 275.5,308.167 275.5,299.5 Z"/></g>
<g><path style="opacity:0.984" fill="#0db9dc" d="M 152.5,324.5 C 154.298,330.687 155.965,337.02 157.5,343.5C 143.598,344.183 129.598,344.849 115.5,345.5C 113.85,338.899 112.517,332.232 111.5,325.5C 125.344,325.829 139.01,325.496 152.5,324.5 Z"/></g>
<g><path style="opacity:0.985" fill="#0db9dc" d="M 11.5,326.5 C 29.1989,325.847 46.5322,326.514 63.5,328.5C 57.7669,333.23 52.7669,338.564 48.5,344.5C 33.6572,344.829 18.9905,344.496 4.5,343.5C 6.00083,337.497 8.33416,331.831 11.5,326.5 Z"/></g>
<g><path style="opacity:0.995" fill="#0db9dc" d="M 195.5,325.5 C 208.833,325.5 222.167,325.5 235.5,325.5C 235.5,331.833 235.5,338.167 235.5,344.5C 221.167,344.5 206.833,344.5 192.5,344.5C 194.876,338.445 195.876,332.111 195.5,325.5 Z"/></g>
<g><path style="opacity:0.996" fill="#0db9dc" d="M 275.5,325.5 C 288.833,325.5 302.167,325.5 315.5,325.5C 315.124,332.111 316.124,338.445 318.5,344.5C 304.167,344.5 289.833,344.5 275.5,344.5C 275.5,338.167 275.5,331.833 275.5,325.5 Z"/></g>
<g><path style="opacity:0.987" fill="#0db9dc" d="M 357.5,325.5 C 371.5,325.5 385.5,325.5 399.5,325.5C 398.483,332.232 397.15,338.899 395.5,345.5C 381.245,344.518 366.912,344.184 352.5,344.5C 354.941,338.405 356.608,332.071 357.5,325.5 Z"/></g>
<g><path style="opacity:0.989" fill="#0eb9dc" d="M 444.5,325.5 C 462.5,325.5 480.5,325.5 498.5,325.5C 502.285,331.405 505.285,337.739 507.5,344.5C 492.5,344.5 477.5,344.5 462.5,344.5C 457.203,337.536 451.203,331.202 444.5,325.5 Z"/></g>
<g><path style="opacity:0.984" fill="#0bb6e0" d="M 157.5,343.5 C 165.03,355.148 175.03,357.648 187.5,351C 189.765,349.242 191.432,347.075 192.5,344.5C 206.833,344.5 221.167,344.5 235.5,344.5C 234.612,349.073 233.279,353.406 231.5,357.5C 194.069,356.171 156.736,356.171 119.5,357.5C 117.595,353.785 116.262,349.785 115.5,345.5C 129.598,344.849 143.598,344.183 157.5,343.5 Z"/></g>
<g><path style="opacity:0.986" fill="#0cb6e0" d="M 4.5,343.5 C 18.9905,344.496 33.6572,344.829 48.5,344.5C 46.2057,348.752 44.2057,353.085 42.5,357.5C 28.5787,356.518 14.5787,356.185 0.5,356.5C 1.45609,351.971 2.78943,347.637 4.5,343.5 Z"/></g>
<g><path style="opacity:0.989" fill="#0cb6e0" d="M 275.5,344.5 C 289.833,344.5 304.167,344.5 318.5,344.5C 323.771,353.127 331.437,356.294 341.5,354C 346.592,352.404 350.258,349.237 352.5,344.5C 366.912,344.184 381.245,344.518 395.5,345.5C 394.656,349.211 393.656,352.877 392.5,356.5C 354.761,356.173 317.094,356.507 279.5,357.5C 277.721,353.406 276.388,349.073 275.5,344.5 Z"/></g>
<g><path style="opacity:0.981" fill="#0cb6e0" d="M 462.5,344.5 C 477.5,344.5 492.5,344.5 507.5,344.5C 508.583,348.085 509.249,351.751 509.5,355.5C 496.344,356.496 483.01,356.829 469.5,356.5C 469.5,357.833 469.5,359.167 469.5,360.5C 467.188,355.205 464.855,349.871 462.5,344.5 Z"/></g>
<g><path style="opacity:0.987" fill="#0ab3e4" d="M 0.5,356.5 C 14.5787,356.185 28.5787,356.518 42.5,357.5C 40.9016,365.41 39.9016,373.41 39.5,381.5C 26.1667,381.5 12.8333,381.5 -0.5,381.5C -0.5,374.833 -0.5,368.167 -0.5,361.5C 0.451145,360.081 0.784479,358.415 0.5,356.5 Z"/></g>
<g><path style="opacity:0.993" fill="#0ab3e4" d="M 231.5,357.5 C 228.157,367.171 222.491,375.171 214.5,381.5C 188.5,381.5 162.5,381.5 136.5,381.5C 128.367,375.23 122.701,367.23 119.5,357.5C 156.736,356.171 194.069,356.171 231.5,357.5 Z"/></g>
<g><path style="opacity:0.991" fill="#0ab3e4" d="M 392.5,356.5 C 388.822,366.51 382.822,374.844 374.5,381.5C 348.5,381.5 322.5,381.5 296.5,381.5C 288.509,375.171 282.843,367.171 279.5,357.5C 317.094,356.507 354.761,356.173 392.5,356.5 Z"/></g>
<g><path style="opacity:0.988" fill="#0ab3e4" d="M 509.5,355.5 C 510.167,357.5 510.833,359.5 511.5,361.5C 511.5,368.167 511.5,374.833 511.5,381.5C 498.167,381.5 484.833,381.5 471.5,381.5C 470.899,374.493 470.233,367.493 469.5,360.5C 469.5,359.167 469.5,357.833 469.5,356.5C 483.01,356.829 496.344,356.496 509.5,355.5 Z"/></g>
<g><path style="opacity:1" fill="#08afe8" d="M -0.5,381.5 C 12.8333,381.5 26.1667,381.5 39.5,381.5C 39.5,385.167 39.5,388.833 39.5,392.5C 26.1667,392.5 12.8333,392.5 -0.5,392.5C -0.5,388.833 -0.5,385.167 -0.5,381.5 Z"/></g>
<g><path style="opacity:0.977" fill="#08afe8" d="M 136.5,381.5 C 162.5,381.5 188.5,381.5 214.5,381.5C 196.254,396.076 175.92,399.576 153.5,392C 147.132,389.49 141.465,385.99 136.5,381.5 Z"/></g>
<g><path style="opacity:0.984" fill="#08afe8" d="M 296.5,381.5 C 322.5,381.5 348.5,381.5 374.5,381.5C 360.132,393.753 343.466,398.253 324.5,395C 313.904,392.867 304.57,388.367 296.5,381.5 Z"/></g>
<g><path style="opacity:1" fill="#08afe8" d="M 471.5,381.5 C 484.833,381.5 498.167,381.5 511.5,381.5C 511.5,385.167 511.5,388.833 511.5,392.5C 498.167,392.5 484.833,392.5 471.5,392.5C 471.5,388.833 471.5,385.167 471.5,381.5 Z"/></g>
<g><path style="opacity:1" fill="#07adeb" d="M -0.5,392.5 C 12.8333,392.5 26.1667,392.5 39.5,392.5C 39.5,397.5 39.5,402.5 39.5,407.5C 26.1667,407.5 12.8333,407.5 -0.5,407.5C -0.5,402.5 -0.5,397.5 -0.5,392.5 Z"/></g>
<g><path style="opacity:1" fill="#07adeb" d="M 471.5,392.5 C 484.833,392.5 498.167,392.5 511.5,392.5C 511.5,397.5 511.5,402.5 511.5,407.5C 498.167,407.5 484.833,407.5 471.5,407.5C 471.5,402.5 471.5,397.5 471.5,392.5 Z"/></g>
<g><path style="opacity:0.996" fill="#05aaef" d="M -0.5,407.5 C 12.8333,407.5 26.1667,407.5 39.5,407.5C 39.3212,413.43 40.3212,419.097 42.5,424.5C 28.2636,422.87 13.9302,421.87 -0.5,421.5C -0.5,416.833 -0.5,412.167 -0.5,407.5 Z"/></g>
<g><path style="opacity:0.994" fill="#05aaef" d="M 471.5,407.5 C 484.833,407.5 498.167,407.5 511.5,407.5C 511.5,412.833 511.5,418.167 511.5,423.5C 497.579,422.518 483.579,422.185 469.5,422.5C 470.9,417.638 471.566,412.638 471.5,407.5 Z"/></g>
<g><path style="opacity:0.979" fill="#04a7f2" d="M -0.5,421.5 C 13.9302,421.87 28.2636,422.87 42.5,424.5C 44.5622,428.895 47.8955,431.895 52.5,433.5C 35.77,433.863 19.1034,434.863 2.5,436.5C 1.79029,432.975 0.790294,429.642 -0.5,426.5C -0.5,424.833 -0.5,423.167 -0.5,421.5 Z"/></g>
<g><path style="opacity:0.985" fill="#04a7f2" d="M 469.5,422.5 C 483.579,422.185 497.579,422.518 511.5,423.5C 511.5,424.5 511.5,425.5 511.5,426.5C 510.5,429.167 509.5,431.833 508.5,434.5C 491.5,434.5 474.5,434.5 457.5,434.5C 463.139,432.195 467.139,428.195 469.5,422.5 Z"/></g>
<g><path style="opacity:0.998" fill="#03a4f5" d="M 52.5,433.5 C 54.7463,434.21 57.0796,434.71 59.5,435C 192.181,435.823 324.848,435.656 457.5,434.5C 474.5,434.5 491.5,434.5 508.5,434.5C 506.457,441.589 503.124,447.922 498.5,453.5C 336.334,452.5 174.001,452.167 11.5,452.5C 7.99341,447.49 4.99341,442.157 2.5,436.5C 19.1034,434.863 35.77,433.863 52.5,433.5 Z"/></g>
<g><path style="opacity:0.998" fill="#01a1f8" d="M 11.5,452.5 C 174.001,452.167 336.334,452.5 498.5,453.5C 496.5,456.167 494.167,458.5 491.5,460.5C 491.565,460.062 491.399,459.728 491,459.5C 334.069,460.166 177.236,460.833 20.5,461.5C 17.1667,458.833 14.1667,455.833 11.5,452.5 Z"/></g>
<g><path style="opacity:0.995" fill="#009ffb" d="M 491.5,460.5 C 483.27,467.949 473.603,472.782 462.5,475C 324.5,475.667 186.5,475.667 48.5,475C 37.9037,472.867 28.5703,468.367 20.5,461.5C 177.236,460.833 334.069,460.166 491,459.5C 491.399,459.728 491.565,460.062 491.5,460.5 Z"/></g>
</svg>
