<?xml version="1.0" encoding="UTF-8"?>
<!DOCTYPE svg PUBLIC "-//W3C//DTD SVG 1.1//EN" "http://www.w3.org/Graphics/SVG/1.1/DTD/svg11.dtd">
<svg xmlns="http://www.w3.org/2000/svg" version="1.1" width="512px" height="512px" style="shape-rendering:geometricPrecision; text-rendering:geometricPrecision; image-rendering:optimizeQuality; fill-rule:evenodd; clip-rule:evenodd" xmlns:xlink="http://www.w3.org/1999/xlink">
<g><path style="opacity:0.985" fill="#29f498" d="M 266.5,-0.5 C 307.833,-0.5 349.167,-0.5 390.5,-0.5C 397.299,0.990768 403.633,3.65744 409.5,7.5C 354.167,8.83333 298.833,8.83333 243.5,7.5C 250.974,4.00989 258.641,1.34322 266.5,-0.5 Z"/></g>
<g><path style="opacity:0.995" fill="#28f29b" d="M 243.5,7.5 C 298.833,8.83333 354.167,8.83333 409.5,7.5C 416.673,10.9993 422.673,15.9993 427.5,22.5C 359.331,22.8325 291.331,22.4992 223.5,21.5C 229.337,15.6654 236.004,10.9988 243.5,7.5 Z"/></g>
<g><path style="opacity:0.993" fill="#27ef9e" d="M 223.5,21.5 C 291.331,22.4992 359.331,22.8325 427.5,22.5C 435.056,32.1637 439.056,43.1637 439.5,55.5C 425.912,54.5187 412.246,54.1853 398.5,54.5C 396.389,47.8888 392.056,43.3888 385.5,41C 373.543,39.4682 361.543,39.1348 349.5,40C 350.582,41.3297 351.249,42.8297 351.5,44.5C 333.736,43.1757 316.069,43.1757 298.5,44.5C 286.641,39.5926 274.641,39.2593 262.5,43.5C 244.167,43.5 225.833,43.5 207.5,43.5C 211.705,35.3028 217.038,27.9694 223.5,21.5 Z"/></g>
<g><path style="opacity:0.99" fill="#26eca1" d="M 207.5,43.5 C 225.833,43.5 244.167,43.5 262.5,43.5C 257.089,46.5526 252.422,50.5526 248.5,55.5C 233.578,54.517 218.578,54.1836 203.5,54.5C 204.044,50.534 205.377,46.8674 207.5,43.5 Z"/></g>
<g><path style="opacity:0.996" fill="#26eca1" d="M 351.5,44.5 C 353.794,47.3695 355.128,50.7029 355.5,54.5C 340.5,54.5 325.5,54.5 310.5,54.5C 306.767,50.7602 302.767,47.4268 298.5,44.5C 316.069,43.1757 333.736,43.1757 351.5,44.5 Z"/></g>
<g><path style="opacity:0.986" fill="#24e9a5" d="M 203.5,54.5 C 218.578,54.1836 233.578,54.517 248.5,55.5C 242.852,62.4442 240.185,70.4442 240.5,79.5C 226.912,78.5187 213.246,78.1853 199.5,78.5C 198.926,70.0553 200.259,62.0553 203.5,54.5 Z"/></g>
<g><path style="opacity:0.984" fill="#24e9a5" d="M 310.5,54.5 C 325.5,54.5 340.5,54.5 355.5,54.5C 358.741,62.0553 360.074,70.0553 359.5,78.5C 345.833,78.5 332.167,78.5 318.5,78.5C 318.414,69.575 315.747,61.575 310.5,54.5 Z"/></g>
<g><path style="opacity:0.997" fill="#22eba6" d="M 398.5,54.5 C 412.246,54.1853 425.912,54.5187 439.5,55.5C 439.5,64.8333 439.5,74.1667 439.5,83.5C 426.167,83.5 412.833,83.5 399.5,83.5C 399.5,93.5 399.5,103.5 399.5,113.5C 399.5,118.167 399.5,122.833 399.5,127.5C 399.5,136.833 399.5,146.167 399.5,155.5C 399.5,163.5 399.5,171.5 399.5,179.5C 399.5,183.167 399.5,186.833 399.5,190.5C 399.167,190.5 398.833,190.5 398.5,190.5C 398.5,145.167 398.5,99.8333 398.5,54.5 Z"/></g>
<g><path style="opacity:1" fill="#22e6a8" d="M 199.5,78.5 C 213.246,78.1853 226.912,78.5187 240.5,79.5C 266.672,79.8311 292.672,79.4978 318.5,78.5C 332.167,78.5 345.833,78.5 359.5,78.5C 359.5,80.1667 359.5,81.8333 359.5,83.5C 306.167,83.5 252.833,83.5 199.5,83.5C 199.5,82.1667 199.5,80.8333 199.5,79.5C 199.5,79.1667 199.5,78.8333 199.5,78.5 Z"/></g>
<g><path style="opacity:0.988" fill="#21e4ab" d="M 114.5,113.5 C 78.1667,113.5 41.8333,113.5 5.5,113.5C 16.3716,91.0539 34.3716,79.7206 59.5,79.5C 84.5008,80.1878 102.834,91.5212 114.5,113.5 Z"/></g>
<g><path style="opacity:1" fill="#21e4ab" d="M 199.5,83.5 C 252.833,83.5 306.167,83.5 359.5,83.5C 359.5,93.5 359.5,103.5 359.5,113.5C 306.167,113.5 252.833,113.5 199.5,113.5C 199.5,103.5 199.5,93.5 199.5,83.5 Z"/></g>
<g><path style="opacity:1" fill="#21e4ab" d="M 439.5,83.5 C 439.5,93.5 439.5,103.5 439.5,113.5C 426.167,113.5 412.833,113.5 399.5,113.5C 399.5,103.5 399.5,93.5 399.5,83.5C 412.833,83.5 426.167,83.5 439.5,83.5 Z"/></g>
<g><path style="opacity:0.991" fill="#20e0af" d="M 5.5,113.5 C 41.8333,113.5 78.1667,113.5 114.5,113.5C 116.833,118.167 119.167,122.833 121.5,127.5C 106.167,127.5 90.8333,127.5 75.5,127.5C 64.8333,118.167 54.1667,118.167 43.5,127.5C 29.0882,127.816 14.7548,127.482 0.5,126.5C 1.20405,121.71 2.87072,117.376 5.5,113.5 Z"/></g>
<g><path style="opacity:1" fill="#20e2b2" d="M 199.5,79.5 C 199.5,80.8333 199.5,82.1667 199.5,83.5C 199.5,93.5 199.5,103.5 199.5,113.5C 252.833,113.5 306.167,113.5 359.5,113.5C 359.5,115.5 359.5,117.5 359.5,119.5C 305.833,119.5 252.167,119.5 198.5,119.5C 198.171,105.99 198.504,92.6562 199.5,79.5 Z"/></g>
<g><path style="opacity:1" fill="#20e0b0" d="M 399.5,113.5 C 412.833,113.5 426.167,113.5 439.5,113.5C 439.5,118.167 439.5,122.833 439.5,127.5C 426.167,127.5 412.833,127.5 399.5,127.5C 399.5,122.833 399.5,118.167 399.5,113.5 Z"/></g>
<g><path style="opacity:0.987" fill="#1eddb3" d="M 0.5,126.5 C 14.7548,127.482 29.0882,127.816 43.5,127.5C 41.7363,131.192 40.403,135.025 39.5,139C 40.2345,142.57 41.2345,146.07 42.5,149.5C 28.0882,149.816 13.7548,149.482 -0.5,148.5C -0.5,141.833 -0.5,135.167 -0.5,128.5C 0.338246,128.158 0.67158,127.492 0.5,126.5 Z"/></g>
<g><path style="opacity:0.985" fill="#1fddb3" d="M 75.5,127.5 C 90.8333,127.5 106.167,127.5 121.5,127.5C 126.437,137.04 131.103,146.707 135.5,156.5C 120.245,155.517 104.911,155.183 89.5,155.5C 84.3255,146.484 79.6588,137.151 75.5,127.5 Z"/></g>
<g><path style="opacity:1" fill="#1edcb3" d="M 399.5,127.5 C 412.833,127.5 426.167,127.5 439.5,127.5C 439.5,136.833 439.5,146.167 439.5,155.5C 426.167,155.5 412.833,155.5 399.5,155.5C 399.5,146.167 399.5,136.833 399.5,127.5 Z"/></g>
<g><path style="opacity:0.984" fill="#1cd8b8" d="M -0.5,148.5 C 13.7548,149.482 28.0882,149.816 42.5,149.5C 48.0079,159.182 53.0079,169.182 57.5,179.5C 42.324,179.171 27.324,179.504 12.5,180.5C 6.60327,171.132 2.26994,161.132 -0.5,150.5C -0.5,149.833 -0.5,149.167 -0.5,148.5 Z"/></g>
<g><path style="opacity:0.998" fill="#1cd8b9" d="M 89.5,155.5 C 104.911,155.183 120.245,155.517 135.5,156.5C 136.267,157.172 136.934,158.005 137.5,159C 184.832,159.5 232.165,159.667 279.5,159.5C 279.5,166.167 279.5,172.833 279.5,179.5C 220.167,179.5 160.833,179.5 101.5,179.5C 96.9922,171.818 92.9922,163.818 89.5,155.5 Z"/></g>
<g><path style="opacity:1" fill="#1cd8b9" d="M 399.5,155.5 C 412.833,155.5 426.167,155.5 439.5,155.5C 439.5,163.5 439.5,171.5 439.5,179.5C 426.167,179.5 412.833,179.5 399.5,179.5C 399.5,171.5 399.5,163.5 399.5,155.5 Z"/></g>
<g><path style="opacity:0.983" fill="#1bd5bc" d="M 57.5,179.5 C 59.6744,182.515 61.3411,185.849 62.5,189.5C 47.676,190.496 32.676,190.829 17.5,190.5C 15.3256,187.485 13.6589,184.151 12.5,180.5C 27.324,179.504 42.324,179.171 57.5,179.5 Z"/></g>
<g><path style="opacity:0.998" fill="#1ad5bc" d="M 101.5,179.5 C 160.833,179.5 220.167,179.5 279.5,179.5C 279.5,183.167 279.5,186.833 279.5,190.5C 221.833,190.5 164.167,190.5 106.5,190.5C 104.562,186.957 102.895,183.29 101.5,179.5 Z"/></g>
<g><path style="opacity:0.987" fill="#19d3bf" d="M 62.5,189.5 C 66.3412,195.849 69.6745,202.516 72.5,209.5C 57.1667,209.5 41.8333,209.5 26.5,209.5C 23.2294,203.292 20.2294,196.959 17.5,190.5C 32.676,190.829 47.676,190.496 62.5,189.5 Z"/></g>
<g><path style="opacity:0.996" fill="#19d3bf" d="M 106.5,190.5 C 164.167,190.5 221.833,190.5 279.5,190.5C 279.5,193.5 279.5,196.5 279.5,199.5C 238.832,199.333 198.165,199.5 157.5,200C 159.246,202.659 160.58,205.492 161.5,208.5C 146.676,209.496 131.676,209.829 116.5,209.5C 112.928,203.359 109.595,197.026 106.5,190.5 Z"/></g>
<g><path style="opacity:1" fill="#19d3be" d="M 399.5,179.5 C 412.833,179.5 426.167,179.5 439.5,179.5C 439.5,189.5 439.5,199.5 439.5,209.5C 426.167,209.5 412.833,209.5 399.5,209.5C 399.5,203.167 399.5,196.833 399.5,190.5C 399.5,186.833 399.5,183.167 399.5,179.5 Z"/></g>
<g><path style="opacity:0.981" fill="#17d0c3" d="M 161.5,208.5 C 165.008,214.182 168.008,220.182 170.5,226.5C 155.258,225.875 140.258,226.541 125.5,228.5C 122.229,222.292 119.229,215.959 116.5,209.5C 131.676,209.829 146.676,209.496 161.5,208.5 Z"/></g>
<g><path style="opacity:0.986" fill="#17d0c3" d="M 26.5,209.5 C 41.8333,209.5 57.1667,209.5 72.5,209.5C 75.6745,214.516 78.3412,219.849 80.5,225.5C 65.3691,226.475 50.3691,226.809 35.5,226.5C 32.2616,221.026 29.2616,215.36 26.5,209.5 Z"/></g>
<g><path style="opacity:1" fill="#18cfc3" d="M 399.5,209.5 C 412.833,209.5 426.167,209.5 439.5,209.5C 439.5,215.167 439.5,220.833 439.5,226.5C 426.167,226.5 412.833,226.5 399.5,226.5C 399.5,220.833 399.5,215.167 399.5,209.5 Z"/></g>
<g><path style="opacity:0.984" fill="#16cdc6" d="M 80.5,225.5 C 83.3411,229.849 85.6745,234.516 87.5,239.5C 72.6382,239.839 57.9715,240.839 43.5,242.5C 40.3255,237.484 37.6588,232.151 35.5,226.5C 50.3691,226.809 65.3691,226.475 80.5,225.5 Z"/></g>
<g><path style="opacity:0.986" fill="#16ccc6" d="M 170.5,226.5 C 174.143,233.965 180.143,238.132 188.5,239C 244.832,239.5 301.166,239.667 357.5,239.5C 282.335,240.499 207.002,240.833 131.5,240.5C 129.5,236.5 127.5,232.5 125.5,228.5C 140.258,226.541 155.258,225.875 170.5,226.5 Z"/></g>
<g><path style="opacity:1" fill="#16cdc6" d="M 399.5,226.5 C 412.833,226.5 426.167,226.5 439.5,226.5C 439.5,231.167 439.5,235.833 439.5,240.5C 426.167,240.5 412.833,240.5 399.5,240.5C 399.5,235.833 399.5,231.167 399.5,226.5 Z"/></g>
<g><path style="opacity:0.997" fill="#15c9ca" d="M 398.5,190.5 C 398.833,190.5 399.167,190.5 399.5,190.5C 399.5,196.833 399.5,203.167 399.5,209.5C 399.5,215.167 399.5,220.833 399.5,226.5C 399.5,231.167 399.5,235.833 399.5,240.5C 412.833,240.5 426.167,240.5 439.5,240.5C 439.5,249.5 439.5,258.5 439.5,267.5C 343.833,267.5 248.167,267.5 152.5,267.5C 142.919,260.576 135.919,251.576 131.5,240.5C 207.002,240.833 282.335,240.499 357.5,239.5C 371.291,240.458 384.625,243.458 397.5,248.5C 398.5,229.178 398.833,209.845 398.5,190.5 Z"/></g>
<g><path style="opacity:0.984" fill="#14caca" d="M 87.5,239.5 C 92.6745,248.516 97.3412,257.849 101.5,267.5C 86.324,267.171 71.324,267.504 56.5,268.5C 51.6588,260.151 47.3255,251.484 43.5,242.5C 57.9715,240.839 72.6382,239.839 87.5,239.5 Z"/></g>
<g><path style="opacity:0.997" fill="#13c6ce" d="M 152.5,267.5 C 248.167,267.5 343.833,267.5 439.5,267.5C 439.337,269.857 439.503,272.19 440,274.5C 443.704,278.036 447.204,281.702 450.5,285.5C 427.327,285.169 404.327,285.502 381.5,286.5C 370.597,282.293 359.263,280.126 347.5,280C 290.833,279.667 234.167,279.333 177.5,279C 168.077,277.285 159.744,273.451 152.5,267.5 Z"/></g>
<g><path style="opacity:0.991" fill="#13c6cf" d="M 101.5,267.5 C 105.331,273.816 109.665,279.816 114.5,285.5C 98.1667,285.5 81.8333,285.5 65.5,285.5C 61.7396,280.316 58.7396,274.65 56.5,268.5C 71.324,267.504 86.324,267.171 101.5,267.5 Z"/></g>
<g><path style="opacity:0.987" fill="#11c2d2" d="M 65.5,285.5 C 81.8333,285.5 98.1667,285.5 114.5,285.5C 122.029,293.928 130.696,300.928 140.5,306.5C 119.833,306.5 99.1667,306.5 78.5,306.5C 72.9512,300.278 68.6179,293.278 65.5,285.5 Z"/></g>
<g><path style="opacity:0.982" fill="#11c2d2" d="M 381.5,286.5 C 404.327,285.502 427.327,285.169 450.5,285.5C 457.5,291.833 464.167,298.5 470.5,305.5C 451.91,306.486 433.243,306.82 414.5,306.5C 404.632,298.062 393.632,291.395 381.5,286.5 Z"/></g>
<g><path style="opacity:0.978" fill="#0fbed7" d="M 470.5,305.5 C 481.2,315.199 491.2,325.532 500.5,336.5C 481.992,336.17 463.659,336.503 445.5,337.5C 434.833,327.5 424.5,317.167 414.5,306.5C 433.243,306.82 451.91,306.486 470.5,305.5 Z"/></g>
<g><path style="opacity:0.991" fill="#0fbdd8" d="M 78.5,306.5 C 99.1667,306.5 119.833,306.5 140.5,306.5C 155.487,314.414 171.487,318.581 188.5,319C 244.833,319.333 301.167,319.667 357.5,320C 369.622,322.391 379.955,327.891 388.5,336.5C 297.002,337.499 205.335,337.833 113.5,337.5C 99.6972,329.704 88.0306,319.371 78.5,306.5 Z"/></g>
<g><path style="opacity:0.996" fill="#0db9dd" d="M 388.5,336.5 C 395.833,343.167 402.833,350.167 409.5,357.5C 379.852,359.492 349.852,360.159 319.5,359.5C 319.167,359.5 318.833,359.5 318.5,359.5C 278.833,359.5 239.167,359.5 199.5,359.5C 186.167,359.5 172.833,359.5 159.5,359.5C 159.5,364.167 159.5,368.833 159.5,373.5C 159.5,375.5 159.5,377.5 159.5,379.5C 158.508,372.018 158.175,364.352 158.5,356.5C 142.003,353.453 127.003,347.12 113.5,337.5C 205.335,337.833 297.002,337.499 388.5,336.5 Z"/></g>
<g><path style="opacity:0.986" fill="#0db9dc" d="M 500.5,336.5 C 505.412,342.999 508.745,350.332 510.5,358.5C 496.245,359.482 481.912,359.816 467.5,359.5C 459.833,352.5 452.5,345.167 445.5,337.5C 463.659,336.503 481.992,336.17 500.5,336.5 Z"/></g>
<g><path style="opacity:0.993" fill="#0bb6e0" d="M 409.5,357.5 C 414.833,362.167 419.833,367.167 424.5,372.5C 406.167,373.167 387.833,373.833 369.5,374.5C 366.203,371.704 363.036,368.704 360,365.5C 359.503,368.146 359.336,370.813 359.5,373.5C 346.167,373.5 332.833,373.5 319.5,373.5C 319.5,368.833 319.5,364.167 319.5,359.5C 349.852,360.159 379.852,359.492 409.5,357.5 Z"/></g>
<g><path style="opacity:1" fill="#0bb6e0" d="M 199.5,359.5 C 199.5,364.167 199.5,368.833 199.5,373.5C 186.167,373.5 172.833,373.5 159.5,373.5C 159.5,368.833 159.5,364.167 159.5,359.5C 172.833,359.5 186.167,359.5 199.5,359.5 Z"/></g>
<g><path style="opacity:0.99" fill="#0bb6e0" d="M 510.5,358.5 C 510.328,359.492 510.662,360.158 511.5,360.5C 511.5,364.833 511.5,369.167 511.5,373.5C 497.588,372.879 483.921,373.546 470.5,375.5C 471.07,369.824 470.07,364.49 467.5,359.5C 481.912,359.816 496.245,359.482 510.5,358.5 Z"/></g>
<g><path style="opacity:0.984" fill="#0ab2e4" d="M 424.5,372.5 C 429.631,377.13 434.631,381.963 439.5,387C 449.579,392.565 458.745,391.398 467,383.5C 468.454,380.929 469.62,378.262 470.5,375.5C 483.921,373.546 497.588,372.879 511.5,373.5C 511.5,376.5 511.5,379.5 511.5,382.5C 509.86,390.086 506.86,397.086 502.5,403.5C 467.671,402.502 432.671,402.168 397.5,402.5C 387.833,393.5 378.5,384.167 369.5,374.5C 387.833,373.833 406.167,373.167 424.5,372.5 Z"/></g>
<g><path style="opacity:0.988" fill="#0ab2e5" d="M 318.5,359.5 C 318.833,359.5 319.167,359.5 319.5,359.5C 319.5,364.167 319.5,368.833 319.5,373.5C 332.833,373.5 346.167,373.5 359.5,373.5C 360.346,383.521 359.013,393.188 355.5,402.5C 291.664,402.168 227.998,402.501 164.5,403.5C 160.553,396.101 158.886,388.101 159.5,379.5C 159.5,377.5 159.5,375.5 159.5,373.5C 172.833,373.5 186.167,373.5 199.5,373.5C 198.644,384.967 203.31,393.134 213.5,398C 242.132,399.616 270.798,399.95 299.5,399C 308.282,398.031 314.449,393.531 318,385.5C 318.5,376.84 318.666,368.173 318.5,359.5 Z"/></g>
<g><path style="opacity:0.997" fill="#08afe8" d="M 355.5,402.5 C 353.656,406.864 351.323,410.864 348.5,414.5C 289.167,414.5 229.833,414.5 170.5,414.5C 167.742,411.322 165.742,407.655 164.5,403.5C 227.998,402.501 291.664,402.168 355.5,402.5 Z"/></g>
<g><path style="opacity:0.991" fill="#08afe8" d="M 397.5,402.5 C 432.671,402.168 467.671,402.502 502.5,403.5C 500.628,408.043 497.628,411.71 493.5,414.5C 465.662,414.169 437.995,414.502 410.5,415.5C 405.833,411.5 401.5,407.167 397.5,402.5 Z"/></g>
<g><path style="opacity:0.994" fill="#07adeb" d="M 170.5,414.5 C 229.833,414.5 289.167,414.5 348.5,414.5C 343.322,422.682 336.322,428.682 327.5,432.5C 282.167,432.5 236.833,432.5 191.5,432.5C 182.678,428.682 175.678,422.682 170.5,414.5 Z"/></g>
<g><path style="opacity:0.981" fill="#07adeb" d="M 493.5,414.5 C 482.095,426.191 468.095,431.858 451.5,431.5C 435.423,431.948 421.757,426.615 410.5,415.5C 437.995,414.502 465.662,414.169 493.5,414.5 Z"/></g>
<g><path style="opacity:0.987" fill="#05aaee" d="M 191.5,432.5 C 236.833,432.5 282.167,432.5 327.5,432.5C 322.419,435.92 316.753,438.087 310.5,439C 300.172,439.5 289.839,439.666 279.5,439.5C 279.5,442.833 279.5,446.167 279.5,449.5C 266.167,449.5 252.833,449.5 239.5,449.5C 239.813,445.958 239.479,442.625 238.5,439.5C 228.494,439.666 218.494,439.5 208.5,439C 202.247,438.087 196.581,435.92 191.5,432.5 Z"/></g>
<g><path style="opacity:1" fill="#04a7f2" d="M 239.5,449.5 C 252.833,449.5 266.167,449.5 279.5,449.5C 279.5,454.167 279.5,458.833 279.5,463.5C 266.167,463.5 252.833,463.5 239.5,463.5C 239.5,458.833 239.5,454.167 239.5,449.5 Z"/></g>
<g><path style="opacity:1" fill="#05a4f6" d="M 238.5,439.5 C 239.479,442.625 239.813,445.958 239.5,449.5C 239.5,454.167 239.5,458.833 239.5,463.5C 252.833,463.5 266.167,463.5 279.5,463.5C 279.5,466.167 279.5,468.833 279.5,471.5C 306.167,471.5 332.833,471.5 359.5,471.5C 359.5,476.167 359.5,480.833 359.5,485.5C 292.833,485.5 226.167,485.5 159.5,485.5C 159.5,488.167 159.5,490.833 159.5,493.5C 159.5,499.5 159.5,505.5 159.5,511.5C 159.167,511.5 158.833,511.5 158.5,511.5C 158.5,498.167 158.5,484.833 158.5,471.5C 185.167,471.5 211.833,471.5 238.5,471.5C 238.5,460.833 238.5,450.167 238.5,439.5 Z"/></g>
<g><path style="opacity:1" fill="#02a1f8" d="M 359.5,485.5 C 359.5,488.167 359.5,490.833 359.5,493.5C 292.833,493.5 226.167,493.5 159.5,493.5C 159.5,490.833 159.5,488.167 159.5,485.5C 226.167,485.5 292.833,485.5 359.5,485.5 Z"/></g>
<g><path style="opacity:1" fill="#009ffb" d="M 159.5,493.5 C 226.167,493.5 292.833,493.5 359.5,493.5C 359.5,499.5 359.5,505.5 359.5,511.5C 292.833,511.5 226.167,511.5 159.5,511.5C 159.5,505.5 159.5,499.5 159.5,493.5 Z"/></g>
</svg>
