<?xml version="1.0" encoding="UTF-8"?>
<!DOCTYPE svg PUBLIC "-//W3C//DTD SVG 1.1//EN" "http://www.w3.org/Graphics/SVG/1.1/DTD/svg11.dtd">
<svg xmlns="http://www.w3.org/2000/svg" version="1.1" width="512px" height="512px" style="shape-rendering:geometricPrecision; text-rendering:geometricPrecision; image-rendering:optimizeQuality; fill-rule:evenodd; clip-rule:evenodd" xmlns:xlink="http://www.w3.org/1999/xlink">
<g><path style="opacity:0.992" fill="#28f29a" d="M 347.5,54.5 C 286.002,55.4991 224.336,55.8324 162.5,55.5C 177.351,41.7664 195.018,35.0998 215.5,35.5C 229.77,35.0674 243.103,38.4007 255.5,45.5C 278.494,33.9225 302.161,32.4225 326.5,41C 334.585,44.0287 341.585,48.5287 347.5,54.5 Z"/></g>
<g><path style="opacity:0.996" fill="#27ef9e" d="M 347.5,54.5 C 353.89,59.5566 359.223,65.5566 363.5,72.5C 291.402,73.8311 219.402,73.8311 147.5,72.5C 151.471,65.8661 156.471,60.1994 162.5,55.5C 224.336,55.8324 286.002,55.4991 347.5,54.5 Z"/></g>
<g><path style="opacity:0.987" fill="#25eca2" d="M 147.5,72.5 C 219.402,73.8311 291.402,73.8311 363.5,72.5C 365.674,75.5154 367.341,78.8487 368.5,82.5C 351.658,82.1702 334.992,82.5035 318.5,83.5C 302.777,74.0432 287.11,74.2099 271.5,84C 266.017,88.6486 260.684,93.4819 255.5,98.5C 250.316,93.4819 244.983,88.6486 239.5,84C 223.89,74.2099 208.223,74.0432 192.5,83.5C 175.911,82.5152 159.244,82.1819 142.5,82.5C 143.659,78.8487 145.326,75.5154 147.5,72.5 Z"/></g>
<g><path style="opacity:0.987" fill="#24e9a5" d="M 142.5,82.5 C 159.244,82.1819 175.911,82.5152 192.5,83.5C 184.353,89.6429 179.02,97.6429 176.5,107.5C 162.754,107.185 149.088,107.519 135.5,108.5C 135.982,99.2294 138.316,90.5627 142.5,82.5 Z"/></g>
<g><path style="opacity:0.984" fill="#24e9a5" d="M 368.5,82.5 C 372.525,90.2542 374.858,98.5875 375.5,107.5C 361.833,107.5 348.167,107.5 334.5,107.5C 331.98,97.6429 326.647,89.6429 318.5,83.5C 334.992,82.5035 351.658,82.1702 368.5,82.5 Z"/></g>
<g><path style="opacity:0.987" fill="#22e4ab" d="M 176.5,107.5 C 176.198,115.918 176.531,124.252 177.5,132.5C 163.735,133.15 150.068,133.817 136.5,134.5C 135.507,126.016 135.174,117.349 135.5,108.5C 149.088,107.519 162.754,107.185 176.5,107.5 Z"/></g>
<g><path style="opacity:0.988" fill="#22e4ab" d="M 334.5,107.5 C 348.167,107.5 361.833,107.5 375.5,107.5C 375.5,115.5 375.5,123.5 375.5,131.5C 361.667,133.822 347.667,134.155 333.5,132.5C 334.469,124.252 334.802,115.918 334.5,107.5 Z"/></g>
<g><path style="opacity:0.984" fill="#21e3ac" d="M 98.5,133.5 C 77.5,133.5 56.5,133.5 35.5,133.5C 35.5,127.5 35.5,121.5 35.5,115.5C 45.8387,115.334 56.172,115.5 66.5,116C 79.1342,118.479 89.8009,124.312 98.5,133.5 Z"/></g>
<g><path style="opacity:0.982" fill="#21e3ac" d="M 475.5,133.5 C 454.5,133.5 433.5,133.5 412.5,133.5C 421.199,124.312 431.866,118.479 444.5,116C 454.828,115.5 465.161,115.334 475.5,115.5C 475.5,121.5 475.5,127.5 475.5,133.5 Z"/></g>
<g><path style="opacity:0.995" fill="#20e0b0" d="M 35.5,133.5 C 56.5,133.5 77.5,133.5 98.5,133.5C 102.207,136.576 105.207,140.242 107.5,144.5C 83.5747,145.49 59.5747,145.823 35.5,145.5C 35.5,141.5 35.5,137.5 35.5,133.5 Z"/></g>
<g><path style="opacity:0.991" fill="#20e0b0" d="M 177.5,132.5 C 177.687,136.913 178.354,141.246 179.5,145.5C 165.421,145.815 151.421,145.482 137.5,144.5C 136.676,141.236 136.342,137.902 136.5,134.5C 150.068,133.817 163.735,133.15 177.5,132.5 Z"/></g>
<g><path style="opacity:0.986" fill="#20e0b0" d="M 375.5,131.5 C 374.981,137.047 373.981,142.38 372.5,147.5C 366.202,146.17 359.535,145.503 352.5,145.5C 345.423,145.517 338.423,145.851 331.5,146.5C 332.487,141.883 333.154,137.216 333.5,132.5C 347.667,134.155 361.667,133.822 375.5,131.5 Z"/></g>
<g><path style="opacity:0.993" fill="#20e0b0" d="M 412.5,133.5 C 433.5,133.5 454.5,133.5 475.5,133.5C 475.5,137.5 475.5,141.5 475.5,145.5C 451.5,145.5 427.5,145.5 403.5,145.5C 405.529,140.776 408.529,136.776 412.5,133.5 Z"/></g>
<g><path style="opacity:0.99" fill="#1eddb3" d="M 107.5,144.5 C 112.168,152.173 114.835,160.506 115.5,169.5C 101.833,169.5 88.1667,169.5 74.5,169.5C 72.018,163.52 67.6846,159.353 61.5,157C 52.8856,155.703 44.2189,155.203 35.5,155.5C 35.5,152.167 35.5,148.833 35.5,145.5C 59.5747,145.823 83.5747,145.49 107.5,144.5 Z"/></g>
<g><path style="opacity:0.986" fill="#1edcb3" d="M 137.5,144.5 C 151.421,145.482 165.421,145.815 179.5,145.5C 182.055,153.497 185.389,161.164 189.5,168.5C 174.578,169.483 159.578,169.816 144.5,169.5C 141.156,161.467 138.823,153.133 137.5,144.5 Z"/></g>
<g><path style="opacity:0.99" fill="#1edcb3" d="M 372.5,147.5 C 371.319,155.376 369.319,163.043 366.5,170.5C 351.578,169.517 336.578,169.184 321.5,169.5C 325.147,161.882 328.481,154.215 331.5,146.5C 338.423,145.851 345.423,145.517 352.5,145.5C 359.535,145.503 366.202,146.17 372.5,147.5 Z"/></g>
<g><path style="opacity:0.99" fill="#1eddb3" d="M 403.5,145.5 C 427.5,145.5 451.5,145.5 475.5,145.5C 475.5,148.833 475.5,152.167 475.5,155.5C 466.781,155.203 458.114,155.703 449.5,157C 443.315,159.353 438.982,163.52 436.5,169.5C 422.833,169.5 409.167,169.5 395.5,169.5C 395.993,160.688 398.66,152.688 403.5,145.5 Z"/></g>
<g><path style="opacity:0.985" fill="#1cd8b9" d="M 189.5,168.5 C 193.902,175.58 197.902,182.914 201.5,190.5C 185.833,190.5 170.167,190.5 154.5,190.5C 150.896,183.626 147.563,176.626 144.5,169.5C 159.578,169.816 174.578,169.483 189.5,168.5 Z"/></g>
<g><path style="opacity:0.998" fill="#1cd7b9" d="M 74.5,169.5 C 88.1667,169.5 101.833,169.5 115.5,169.5C 115.5,178.167 115.5,186.833 115.5,195.5C 102.167,195.5 88.8333,195.5 75.5,195.5C 75.632,186.809 75.2987,178.142 74.5,169.5 Z"/></g>
<g><path style="opacity:0.983" fill="#1cd8b9" d="M 321.5,169.5 C 336.578,169.184 351.578,169.517 366.5,170.5C 363.167,177.167 359.833,183.833 356.5,190.5C 340.991,190.83 325.658,190.496 310.5,189.5C 313.372,182.321 317.039,175.654 321.5,169.5 Z"/></g>
<g><path style="opacity:0.997" fill="#1cd7b9" d="M 395.5,169.5 C 409.167,169.5 422.833,169.5 436.5,169.5C 435.701,178.142 435.368,186.809 435.5,195.5C 422.167,195.5 408.833,195.5 395.5,195.5C 395.5,186.833 395.5,178.167 395.5,169.5 Z"/></g>
<g><path style="opacity:0.981" fill="#1ad5bc" d="M 310.5,189.5 C 325.658,190.496 340.991,190.83 356.5,190.5C 354.485,193.869 352.485,197.202 350.5,200.5C 335.578,199.517 320.578,199.184 305.5,199.5C 306.659,195.849 308.326,192.515 310.5,189.5 Z"/></g>
<g><path style="opacity:0.986" fill="#1ad5bc" d="M 154.5,190.5 C 170.167,190.5 185.833,190.5 201.5,190.5C 203.105,193.378 204.439,196.378 205.5,199.5C 190.806,199.529 175.806,199.529 160.5,199.5C 158.265,196.709 156.265,193.709 154.5,190.5 Z"/></g>
<g><path style="opacity:0.991" fill="#19d2bf" d="M 160.5,199.5 C 175.806,199.529 190.806,199.529 205.5,199.5C 207.676,204.686 209.676,210.019 211.5,215.5C 196.863,216.819 182.197,216.819 167.5,215.5C 165.167,210.167 162.833,204.833 160.5,199.5 Z"/></g>
<g><path style="opacity:0.987" fill="#19d2bf" d="M 305.5,199.5 C 320.578,199.184 335.578,199.517 350.5,200.5C 347.56,206.046 344.894,211.713 342.5,217.5C 328.245,216.518 313.912,216.184 299.5,216.5C 300.748,210.472 302.748,204.806 305.5,199.5 Z"/></g>
<g><path style="opacity:0.989" fill="#18cfc3" d="M 299.5,216.5 C 313.912,216.184 328.245,216.518 342.5,217.5C 340.768,221.697 339.435,226.03 338.5,230.5C 324.5,230.5 310.5,230.5 296.5,230.5C 297.5,225.833 298.5,221.167 299.5,216.5 Z"/></g>
<g><path style="opacity:0.991" fill="#18cfc3" d="M 167.5,215.5 C 182.197,216.819 196.863,216.819 211.5,215.5C 212.425,219.79 213.091,224.124 213.5,228.5C 200.13,230.188 186.463,231.188 172.5,231.5C 171.632,225.897 169.965,220.564 167.5,215.5 Z"/></g>
<g><path style="opacity:0.986" fill="#18cfc3" d="M 282.5,230.5 C 264.5,230.5 246.5,230.5 228.5,230.5C 232.437,226.291 234.437,221.291 234.5,215.5C 248.5,215.5 262.5,215.5 276.5,215.5C 276.563,221.291 278.563,226.291 282.5,230.5 Z"/></g>
<g><path style="opacity:0.99" fill="#16cdc6" d="M 213.5,228.5 C 214.314,230.631 214.814,232.964 215,235.5C 219.852,234.826 224.352,233.159 228.5,230.5C 246.5,230.5 264.5,230.5 282.5,230.5C 286.648,233.159 291.148,234.826 296,235.5C 296.494,233.866 296.66,232.199 296.5,230.5C 310.5,230.5 324.5,230.5 338.5,230.5C 337.741,234.477 337.075,238.477 336.5,242.5C 282.5,242.5 228.5,242.5 174.5,242.5C 174.016,238.768 173.349,235.101 172.5,231.5C 186.463,231.188 200.13,230.188 213.5,228.5 Z"/></g>
<g><path style="opacity:0.945" fill="#16ccc6" d="M 126.5,241.5 C 105.5,242.833 84.5,242.833 63.5,241.5C 78.6797,235.936 94.3463,234.102 110.5,236C 116.176,236.947 121.509,238.781 126.5,241.5 Z"/></g>
<g><path style="opacity:0.95" fill="#16ccc6" d="M 446.5,241.5 C 426.167,242.833 405.833,242.833 385.5,241.5C 393.945,236.767 403.111,234.767 413,235.5C 424.705,235.199 435.872,237.199 446.5,241.5 Z"/></g>
<g><path style="opacity:0.988" fill="#15c9ca" d="M 63.5,241.5 C 84.5,242.833 105.5,242.833 126.5,241.5C 137.064,246.73 145.397,254.397 151.5,264.5C 110.5,265.833 69.5,265.833 28.5,264.5C 38.2797,254.1 49.9463,246.434 63.5,241.5 Z"/></g>
<g><path style="opacity:0.988" fill="#15c9ca" d="M 385.5,241.5 C 405.833,242.833 426.167,242.833 446.5,241.5C 460.974,246.327 473.307,254.327 483.5,265.5C 442.167,265.5 400.833,265.5 359.5,265.5C 365.281,254.386 373.947,246.386 385.5,241.5 Z"/></g>
<g><path style="opacity:0.996" fill="#15c9ca" d="M 174.5,242.5 C 228.5,242.5 282.5,242.5 336.5,242.5C 336.32,250.175 335.986,257.842 335.5,265.5C 311.167,265.5 286.833,265.5 262.5,265.5C 260.059,264.443 257.725,263.11 255.5,261.5C 252.816,263.193 250.149,264.86 247.5,266.5C 223.672,265.502 199.672,265.169 175.5,265.5C 175.014,257.842 174.68,250.175 174.5,242.5 Z"/></g>
<g><path style="opacity:0.994" fill="#13c6cd" d="M 28.5,264.5 C 69.5,265.833 110.5,265.833 151.5,264.5C 152.773,266.713 153.773,269.046 154.5,271.5C 110.5,272.833 66.5,272.833 22.5,271.5C 23.7997,268.568 25.7997,266.234 28.5,264.5 Z"/></g>
<g><path style="opacity:0.994" fill="#13c6cd" d="M 175.5,265.5 C 199.672,265.169 223.672,265.502 247.5,266.5C 241.28,270.933 234.28,273.766 226.5,275C 209.503,275.5 192.503,275.667 175.5,275.5C 175.5,272.167 175.5,268.833 175.5,265.5 Z"/></g>
<g><path style="opacity:0.994" fill="#13c6cd" d="M 262.5,265.5 C 286.833,265.5 311.167,265.5 335.5,265.5C 335.5,268.833 335.5,272.167 335.5,275.5C 318.497,275.667 301.497,275.5 284.5,275C 276.255,273.705 268.921,270.538 262.5,265.5 Z"/></g>
<g><path style="opacity:0.985" fill="#12c5cf" d="M 22.5,271.5 C 66.5,272.833 110.5,272.833 154.5,271.5C 156.404,274.534 157.738,277.867 158.5,281.5C 143.5,281.5 128.5,281.5 113.5,281.5C 109.181,278.257 104.348,276.257 99,275.5C 90.2536,276.311 81.7536,278.311 73.5,281.5C 53.8333,281.5 34.1667,281.5 14.5,281.5C 16.8171,277.854 19.4838,274.52 22.5,271.5 Z"/></g>
<g><path style="opacity:0.985" fill="#13c5ce" d="M 359.5,265.5 C 400.833,265.5 442.167,265.5 483.5,265.5C 488.561,270.229 492.894,275.562 496.5,281.5C 477.326,281.17 458.326,281.503 439.5,282.5C 430.687,278.672 421.52,276.338 412,275.5C 406.15,276.342 400.983,278.675 396.5,282.5C 382.01,281.504 367.343,281.171 352.5,281.5C 353.772,275.629 356.106,270.296 359.5,265.5 Z"/></g>
<g><path style="opacity:0.989" fill="#11c2d2" d="M 14.5,281.5 C 34.1667,281.5 53.8333,281.5 73.5,281.5C 64.9614,286.367 57.6281,292.701 51.5,300.5C 36.2446,299.517 20.9112,299.183 5.5,299.5C 7.97276,293.221 10.9728,287.221 14.5,281.5 Z"/></g>
<g><path style="opacity:0.992" fill="#11c2d2" d="M 113.5,281.5 C 128.5,281.5 143.5,281.5 158.5,281.5C 159.286,287.814 159.953,294.147 160.5,300.5C 146.912,299.519 133.246,299.185 119.5,299.5C 119.604,292.747 117.604,286.747 113.5,281.5 Z"/></g>
<g><path style="opacity:0.991" fill="#11c2d2" d="M 352.5,281.5 C 367.343,281.171 382.01,281.504 396.5,282.5C 393.246,287.664 391.58,293.331 391.5,299.5C 377.833,299.5 364.167,299.5 350.5,299.5C 351.107,293.489 351.774,287.489 352.5,281.5 Z"/></g>
<g><path style="opacity:0.99" fill="#11c2d2" d="M 496.5,281.5 C 500.3,287.435 503.3,293.768 505.5,300.5C 490.069,299.177 474.735,299.177 459.5,300.5C 453.754,293.418 447.087,287.418 439.5,282.5C 458.326,281.503 477.326,281.17 496.5,281.5 Z"/></g>
<g><path style="opacity:0.985" fill="#0fbed7" d="M 5.5,299.5 C 20.9112,299.183 36.2446,299.517 51.5,300.5C 46.0979,308.029 42.4312,316.362 40.5,325.5C 26.8333,325.5 13.1667,325.5 -0.5,325.5C -0.5,324.167 -0.5,322.833 -0.5,321.5C 0.855172,314.091 2.85517,306.758 5.5,299.5 Z"/></g>
<g><path style="opacity:0.985" fill="#0fbed7" d="M 119.5,299.5 C 133.246,299.185 146.912,299.519 160.5,300.5C 161.218,308.985 163.551,316.985 167.5,324.5C 153.01,325.496 138.343,325.829 123.5,325.5C 120.87,317.05 119.536,308.383 119.5,299.5 Z"/></g>
<g><path style="opacity:0.983" fill="#0fbed7" d="M 350.5,299.5 C 364.167,299.5 377.833,299.5 391.5,299.5C 391.541,309.262 389.874,318.596 386.5,327.5C 372.362,325.839 358.029,324.839 343.5,324.5C 347.656,316.696 349.989,308.362 350.5,299.5 Z"/></g>
<g><path style="opacity:0.984" fill="#0fbed7" d="M 505.5,300.5 C 508.267,307.372 510.267,314.372 511.5,321.5C 511.5,322.5 511.5,323.5 511.5,324.5C 497.833,325.167 484.167,325.833 470.5,326.5C 468.466,317.104 464.8,308.438 459.5,300.5C 474.735,299.177 490.069,299.177 505.5,300.5 Z"/></g>
<g><path style="opacity:0.996" fill="#0db9dc" d="M -0.5,325.5 C 13.1667,325.5 26.8333,325.5 40.5,325.5C 40.2329,331.838 39.8995,338.171 39.5,344.5C 26.1667,344.5 12.8333,344.5 -0.5,344.5C -0.5,338.167 -0.5,331.833 -0.5,325.5 Z"/></g>
<g><path style="opacity:0.989" fill="#0db9dd" d="M 167.5,324.5 C 172.083,331.753 177.75,338.086 184.5,343.5C 167.167,344.167 149.833,344.833 132.5,345.5C 128.441,339.376 125.441,332.71 123.5,325.5C 138.343,325.829 153.01,325.496 167.5,324.5 Z"/></g>
<g><path style="opacity:0.987" fill="#0db9dc" d="M 343.5,324.5 C 358.029,324.839 372.362,325.839 386.5,327.5C 384.993,333.513 382.659,339.18 379.5,344.5C 361.801,345.153 344.468,344.486 327.5,342.5C 333.947,337.392 339.281,331.392 343.5,324.5 Z"/></g>
<g><path style="opacity:0.995" fill="#0db9dc" d="M 511.5,324.5 C 511.5,331.167 511.5,337.833 511.5,344.5C 498.167,344.5 484.833,344.5 471.5,344.5C 471.167,338.5 470.833,332.5 470.5,326.5C 484.167,325.833 497.833,325.167 511.5,324.5 Z"/></g>
<g><path style="opacity:1" fill="#0bb6e0" d="M -0.5,344.5 C 12.8333,344.5 26.1667,344.5 39.5,344.5C 39.5,348.5 39.5,352.5 39.5,356.5C 26.1667,356.5 12.8333,356.5 -0.5,356.5C -0.5,352.5 -0.5,348.5 -0.5,344.5 Z"/></g>
<g><path style="opacity:0.986" fill="#0cb6e0" d="M 327.5,342.5 C 344.468,344.486 361.801,345.153 379.5,344.5C 377.226,348.772 374.559,352.772 371.5,356.5C 294.493,355.836 217.826,356.503 141.5,358.5C 137.773,354.727 134.773,350.394 132.5,345.5C 149.833,344.833 167.167,344.167 184.5,343.5C 191.792,348.438 199.792,351.938 208.5,354C 239.833,356 271.167,356 302.5,354C 311.899,352.298 320.233,348.464 327.5,342.5 Z"/></g>
<g><path style="opacity:1" fill="#0bb6e0" d="M 471.5,344.5 C 484.833,344.5 498.167,344.5 511.5,344.5C 511.5,348.5 511.5,352.5 511.5,356.5C 498.167,356.5 484.833,356.5 471.5,356.5C 471.5,352.5 471.5,348.5 471.5,344.5 Z"/></g>
<g><path style="opacity:1" fill="#0ab3e4" d="M -0.5,356.5 C 12.8333,356.5 26.1667,356.5 39.5,356.5C 39.5,364.833 39.5,373.167 39.5,381.5C 26.1667,381.5 12.8333,381.5 -0.5,381.5C -0.5,373.167 -0.5,364.833 -0.5,356.5 Z"/></g>
<g><path style="opacity:0.996" fill="#0ab3e4" d="M 371.5,356.5 C 363.116,367.026 353.116,375.693 341.5,382.5C 284.069,381.169 226.736,381.169 169.5,382.5C 158.619,376.284 149.285,368.284 141.5,358.5C 217.826,356.503 294.493,355.836 371.5,356.5 Z"/></g>
<g><path style="opacity:1" fill="#0ab3e4" d="M 471.5,356.5 C 484.833,356.5 498.167,356.5 511.5,356.5C 511.5,364.833 511.5,373.167 511.5,381.5C 498.167,381.5 484.833,381.5 471.5,381.5C 471.5,373.167 471.5,364.833 471.5,356.5 Z"/></g>
<g><path style="opacity:1" fill="#08afe8" d="M -0.5,381.5 C 12.8333,381.5 26.1667,381.5 39.5,381.5C 39.5,385.167 39.5,388.833 39.5,392.5C 26.1667,392.5 12.8333,392.5 -0.5,392.5C -0.5,388.833 -0.5,385.167 -0.5,381.5 Z"/></g>
<g><path style="opacity:0.992" fill="#08afe8" d="M 341.5,382.5 C 330.529,389.325 318.529,393.492 305.5,395C 272.167,395.667 238.833,395.667 205.5,395C 192.53,393.335 180.53,389.168 169.5,382.5C 226.736,381.169 284.069,381.169 341.5,382.5 Z"/></g>
<g><path style="opacity:1" fill="#08afe8" d="M 471.5,381.5 C 484.833,381.5 498.167,381.5 511.5,381.5C 511.5,385.167 511.5,388.833 511.5,392.5C 498.167,392.5 484.833,392.5 471.5,392.5C 471.5,388.833 471.5,385.167 471.5,381.5 Z"/></g>
<g><path style="opacity:1" fill="#07adeb" d="M -0.5,392.5 C 12.8333,392.5 26.1667,392.5 39.5,392.5C 39.5,397.5 39.5,402.5 39.5,407.5C 26.1667,407.5 12.8333,407.5 -0.5,407.5C -0.5,402.5 -0.5,397.5 -0.5,392.5 Z"/></g>
<g><path style="opacity:1" fill="#07adeb" d="M 471.5,392.5 C 484.833,392.5 498.167,392.5 511.5,392.5C 511.5,397.5 511.5,402.5 511.5,407.5C 498.167,407.5 484.833,407.5 471.5,407.5C 471.5,402.5 471.5,397.5 471.5,392.5 Z"/></g>
<g><path style="opacity:0.996" fill="#05aaef" d="M -0.5,407.5 C 12.8333,407.5 26.1667,407.5 39.5,407.5C 39.3212,413.43 40.3212,419.097 42.5,424.5C 28.2636,422.87 13.9302,421.87 -0.5,421.5C -0.5,416.833 -0.5,412.167 -0.5,407.5 Z"/></g>
<g><path style="opacity:0.994" fill="#05aaef" d="M 471.5,407.5 C 484.833,407.5 498.167,407.5 511.5,407.5C 511.5,412.833 511.5,418.167 511.5,423.5C 497.579,422.518 483.579,422.185 469.5,422.5C 470.9,417.638 471.566,412.638 471.5,407.5 Z"/></g>
<g><path style="opacity:0.979" fill="#04a7f2" d="M -0.5,421.5 C 13.9302,421.87 28.2636,422.87 42.5,424.5C 44.5622,428.895 47.8955,431.895 52.5,433.5C 35.77,433.863 19.1034,434.863 2.5,436.5C 1.79029,432.975 0.790294,429.642 -0.5,426.5C -0.5,424.833 -0.5,423.167 -0.5,421.5 Z"/></g>
<g><path style="opacity:0.985" fill="#04a7f2" d="M 469.5,422.5 C 483.579,422.185 497.579,422.518 511.5,423.5C 511.5,424.5 511.5,425.5 511.5,426.5C 510.5,429.167 509.5,431.833 508.5,434.5C 491.5,434.5 474.5,434.5 457.5,434.5C 463.139,432.195 467.139,428.195 469.5,422.5 Z"/></g>
<g><path style="opacity:0.998" fill="#03a4f5" d="M 52.5,433.5 C 54.7463,434.21 57.0796,434.71 59.5,435C 192.181,435.823 324.848,435.656 457.5,434.5C 474.5,434.5 491.5,434.5 508.5,434.5C 506.457,441.589 503.124,447.922 498.5,453.5C 336.334,452.5 174.001,452.167 11.5,452.5C 7.99341,447.49 4.99341,442.157 2.5,436.5C 19.1034,434.863 35.77,433.863 52.5,433.5 Z"/></g>
<g><path style="opacity:0.998" fill="#01a1f8" d="M 11.5,452.5 C 174.001,452.167 336.334,452.5 498.5,453.5C 496.5,456.167 494.167,458.5 491.5,460.5C 491.565,460.062 491.399,459.728 491,459.5C 334.069,460.166 177.236,460.833 20.5,461.5C 17.1667,458.833 14.1667,455.833 11.5,452.5 Z"/></g>
<g><path style="opacity:0.995" fill="#009ffb" d="M 491.5,460.5 C 483.27,467.949 473.603,472.782 462.5,475C 324.5,475.667 186.5,475.667 48.5,475C 37.9037,472.867 28.5703,468.367 20.5,461.5C 177.236,460.833 334.069,460.166 491,459.5C 491.399,459.728 491.565,460.062 491.5,460.5 Z"/></g>
</svg>
