<?xml version="1.0" encoding="UTF-8"?>
<!DOCTYPE svg PUBLIC "-//W3C//DTD SVG 1.1//EN" "http://www.w3.org/Graphics/SVG/1.1/DTD/svg11.dtd">
<svg xmlns="http://www.w3.org/2000/svg" version="1.1" width="512px" height="512px" style="shape-rendering:geometricPrecision; text-rendering:geometricPrecision; image-rendering:optimizeQuality; fill-rule:evenodd; clip-rule:evenodd" xmlns:xlink="http://www.w3.org/1999/xlink">
<g><path style="opacity:0.992" fill="#28f29a" d="M 180.5,-0.5 C 190.5,-0.5 200.5,-0.5 210.5,-0.5C 226.286,1.87324 241.286,6.87324 255.5,14.5C 269.714,6.87324 284.714,1.87324 300.5,-0.5C 310.5,-0.5 320.5,-0.5 330.5,-0.5C 351.121,2.48271 369.787,10.1494 386.5,22.5C 299.167,22.5 211.833,22.5 124.5,22.5C 141.213,10.1494 159.879,2.48271 180.5,-0.5 Z"/></g>
<g><path style="opacity:0.992" fill="#27ef9e" d="M 124.5,22.5 C 211.833,22.5 299.167,22.5 386.5,22.5C 394.811,27.8114 401.811,34.478 407.5,42.5C 385.833,43.1667 364.167,43.8333 342.5,44.5C 333.792,41.9913 324.958,40.3246 316,39.5C 306.974,40.0717 298.141,41.7384 289.5,44.5C 266.833,43.1667 244.167,43.1667 221.5,44.5C 212.859,41.7384 204.026,40.0717 195,39.5C 186.042,40.3246 177.208,41.9913 168.5,44.5C 146.735,43.8437 125.069,43.177 103.5,42.5C 109.189,34.478 116.189,27.8114 124.5,22.5 Z"/></g>
<g><path style="opacity:0.987" fill="#26eca1" d="M 103.5,42.5 C 125.069,43.177 146.735,43.8437 168.5,44.5C 161.579,47.6288 154.912,51.2954 148.5,55.5C 130.674,54.5032 112.674,54.1699 94.5,54.5C 96.7376,49.9289 99.7376,45.9289 103.5,42.5 Z"/></g>
<g><path style="opacity:0.979" fill="#25eca2" d="M 221.5,44.5 C 244.167,43.1667 266.833,43.1667 289.5,44.5C 276.921,49.4577 265.587,56.4577 255.5,65.5C 245.446,56.4707 234.112,49.4707 221.5,44.5 Z"/></g>
<g><path style="opacity:0.987" fill="#26eca2" d="M 407.5,42.5 C 411.262,45.9289 414.262,49.9289 416.5,54.5C 398.326,54.1699 380.326,54.5032 362.5,55.5C 356.154,51.3256 349.488,47.659 342.5,44.5C 364.167,43.8333 385.833,43.1667 407.5,42.5 Z"/></g>
<g><path style="opacity:0.989" fill="#24e9a5" d="M 94.5,54.5 C 112.674,54.1699 130.674,54.5032 148.5,55.5C 138.687,63.3109 130.687,72.6442 124.5,83.5C 109.755,83.184 95.0884,83.5174 80.5,84.5C 83.0695,73.4282 87.7362,63.4282 94.5,54.5 Z"/></g>
<g><path style="opacity:0.984" fill="#24e9a5" d="M 362.5,55.5 C 380.326,54.5032 398.326,54.1699 416.5,54.5C 422.678,63.3273 427.345,72.994 430.5,83.5C 415.833,83.5 401.167,83.5 386.5,83.5C 380.313,72.6442 372.313,63.3109 362.5,55.5 Z"/></g>
<g><path style="opacity:0.982" fill="#22e4ab" d="M 124.5,83.5 C 119.964,92.9754 117.297,102.975 116.5,113.5C 102.833,113.5 89.1667,113.5 75.5,113.5C 75.5654,103.437 77.2321,93.77 80.5,84.5C 95.0884,83.5174 109.755,83.184 124.5,83.5 Z"/></g>
<g><path style="opacity:0.983" fill="#22e4ab" d="M 386.5,83.5 C 401.167,83.5 415.833,83.5 430.5,83.5C 433.675,93.2184 435.342,103.218 435.5,113.5C 421.833,113.5 408.167,113.5 394.5,113.5C 393.703,102.975 391.036,92.9754 386.5,83.5 Z"/></g>
<g><path style="opacity:0.995" fill="#20e0b0" d="M 75.5,113.5 C 89.1667,113.5 102.833,113.5 116.5,113.5C 116.5,118.167 116.5,122.833 116.5,127.5C 102.833,127.5 89.1667,127.5 75.5,127.5C 75.5,122.833 75.5,118.167 75.5,113.5 Z"/></g>
<g><path style="opacity:0.989" fill="#20e0b0" d="M 394.5,113.5 C 408.167,113.5 421.833,113.5 435.5,113.5C 435.5,118.167 435.5,122.833 435.5,127.5C 421.833,127.5 408.167,127.5 394.5,127.5C 394.5,122.833 394.5,118.167 394.5,113.5 Z"/></g>
<g><path style="opacity:0.987" fill="#1edcb3" d="M 75.5,127.5 C 89.1667,127.5 102.833,127.5 116.5,127.5C 116.843,136.909 117.843,146.243 119.5,155.5C 105.833,155.5 92.1667,155.5 78.5,155.5C 76.491,146.414 75.491,137.081 75.5,127.5 Z"/></g>
<g><path style="opacity:0.989" fill="#1edcb4" d="M 394.5,127.5 C 408.167,127.5 421.833,127.5 435.5,127.5C 435.509,137.081 434.509,146.414 432.5,155.5C 418.833,155.5 405.167,155.5 391.5,155.5C 393.157,146.243 394.157,136.909 394.5,127.5 Z"/></g>
<g><path style="opacity:0.984" fill="#1cd8b9" d="M 78.5,155.5 C 92.1667,155.5 105.833,155.5 119.5,155.5C 122.082,163.569 125.082,171.569 128.5,179.5C 113.833,179.5 99.1667,179.5 84.5,179.5C 81.5634,171.754 79.5634,163.754 78.5,155.5 Z"/></g>
<g><path style="opacity:0.985" fill="#1cd8b9" d="M 391.5,155.5 C 405.167,155.5 418.833,155.5 432.5,155.5C 431.572,163.551 429.572,171.218 426.5,178.5C 411.833,179.833 397.167,179.833 382.5,178.5C 386.111,170.988 389.111,163.322 391.5,155.5 Z"/></g>
<g><path style="opacity:0.982" fill="#1bd5bc" d="M 382.5,178.5 C 397.167,179.833 411.833,179.833 426.5,178.5C 425.63,183.223 423.964,187.556 421.5,191.5C 407.01,190.504 392.343,190.171 377.5,190.5C 379.169,186.496 380.836,182.496 382.5,178.5 Z"/></g>
<g><path style="opacity:0.986" fill="#1bd5bc" d="M 84.5,179.5 C 99.1667,179.5 113.833,179.5 128.5,179.5C 130.403,182.979 132.07,186.646 133.5,190.5C 118.5,190.5 103.5,190.5 88.5,190.5C 86.8911,186.946 85.5578,183.279 84.5,179.5 Z"/></g>
<g><path style="opacity:0.996" fill="#19d2c0" d="M 88.5,190.5 C 103.5,190.5 118.5,190.5 133.5,190.5C 135.266,193.188 136.933,196.021 138.5,199C 216.5,199.667 294.5,199.667 372.5,199C 374.067,196.021 375.734,193.188 377.5,190.5C 392.343,190.171 407.01,190.504 421.5,191.5C 419.38,197.74 416.713,203.74 413.5,209.5C 308.332,209.167 203.332,209.501 98.5,210.5C 94.6566,204.146 91.3232,197.48 88.5,190.5 Z"/></g>
<g><path style="opacity:0.998" fill="#18cfc3" d="M 413.5,209.5 C 410.467,215.565 407.467,221.565 404.5,227.5C 305.001,226.501 205.335,226.167 105.5,226.5C 103.169,221.171 100.836,215.838 98.5,210.5C 203.332,209.501 308.332,209.167 413.5,209.5 Z"/></g>
<g><path style="opacity:0.998" fill="#16cdc6" d="M 105.5,226.5 C 205.335,226.167 305.001,226.501 404.5,227.5C 403.571,231.284 402.238,234.951 400.5,238.5C 372.003,239.167 343.67,239.833 315.5,240.5C 302.167,240.5 288.833,240.5 275.5,240.5C 262.167,239.167 248.833,239.167 235.5,240.5C 222.167,240.5 208.833,240.5 195.5,240.5C 167.33,239.833 138.997,239.167 110.5,238.5C 108.818,234.474 107.152,230.474 105.5,226.5 Z"/></g>
<g><path style="opacity:1" fill="#15c9ca" d="M 195.5,240.5 C 208.833,240.5 222.167,240.5 235.5,240.5C 235.5,249.5 235.5,258.5 235.5,267.5C 222.167,267.5 208.833,267.5 195.5,267.5C 195.5,258.5 195.5,249.5 195.5,240.5 Z"/></g>
<g><path style="opacity:1" fill="#15c9ca" d="M 275.5,240.5 C 288.833,240.5 302.167,240.5 315.5,240.5C 315.5,249.5 315.5,258.5 315.5,267.5C 302.167,267.5 288.833,267.5 275.5,267.5C 275.5,258.5 275.5,249.5 275.5,240.5 Z"/></g>
<g><path style="opacity:1" fill="#13c5cf" d="M 195.5,267.5 C 208.833,267.5 222.167,267.5 235.5,267.5C 235.5,270.167 235.5,272.833 235.5,275.5C 248.833,275.5 262.167,275.5 275.5,275.5C 275.5,272.833 275.5,270.167 275.5,267.5C 288.833,267.5 302.167,267.5 315.5,267.5C 315.5,270.167 315.5,272.833 315.5,275.5C 328.833,275.5 342.167,275.5 355.5,275.5C 355.5,278.833 355.5,282.167 355.5,285.5C 288.833,285.5 222.167,285.5 155.5,285.5C 155.5,282.167 155.5,278.833 155.5,275.5C 168.833,275.5 182.167,275.5 195.5,275.5C 195.5,272.833 195.5,270.167 195.5,267.5 Z"/></g>
<g><path style="opacity:1" fill="#11c2d2" d="M 155.5,285.5 C 222.167,285.5 288.833,285.5 355.5,285.5C 355.5,291.167 355.5,296.833 355.5,302.5C 288.833,302.5 222.167,302.5 155.5,302.5C 155.5,296.833 155.5,291.167 155.5,285.5 Z"/></g>
<g><path style="opacity:1" fill="#11c1d4" d="M 155.5,302.5 C 222.167,302.5 288.833,302.5 355.5,302.5C 355.5,303.833 355.5,305.167 355.5,306.5C 288.833,306.5 222.167,306.5 155.5,306.5C 155.5,305.167 155.5,303.833 155.5,302.5 Z"/></g>
<g><path style="opacity:1" fill="#10bed6" d="M 155.5,306.5 C 222.167,306.5 288.833,306.5 355.5,306.5C 355.5,309.5 355.5,312.5 355.5,315.5C 342.167,315.5 328.833,315.5 315.5,315.5C 315.5,322.5 315.5,329.5 315.5,336.5C 302.167,336.5 288.833,336.5 275.5,336.5C 275.5,329.5 275.5,322.5 275.5,315.5C 262.167,315.5 248.833,315.5 235.5,315.5C 235.5,322.5 235.5,329.5 235.5,336.5C 222.167,336.5 208.833,336.5 195.5,336.5C 195.5,329.5 195.5,322.5 195.5,315.5C 182.167,315.5 168.833,315.5 155.5,315.5C 155.5,312.5 155.5,309.5 155.5,306.5 Z"/></g>
<g><path style="opacity:1" fill="#0db9dd" d="M 195.5,336.5 C 208.833,336.5 222.167,336.5 235.5,336.5C 235.5,342.833 235.5,349.167 235.5,355.5C 248.833,355.5 262.167,355.5 275.5,355.5C 275.5,349.167 275.5,342.833 275.5,336.5C 288.833,336.5 302.167,336.5 315.5,336.5C 315.5,342.833 315.5,349.167 315.5,355.5C 328.833,355.5 342.167,355.5 355.5,355.5C 355.5,356.833 355.5,358.167 355.5,359.5C 288.833,359.5 222.167,359.5 155.5,359.5C 155.5,358.167 155.5,356.833 155.5,355.5C 168.833,355.5 182.167,355.5 195.5,355.5C 195.5,349.167 195.5,342.833 195.5,336.5 Z"/></g>
<g><path style="opacity:1" fill="#0bb6e0" d="M 155.5,359.5 C 222.167,359.5 288.833,359.5 355.5,359.5C 355.5,364.167 355.5,368.833 355.5,373.5C 288.833,373.5 222.167,373.5 155.5,373.5C 155.5,368.833 155.5,364.167 155.5,359.5 Z"/></g>
<g><path style="opacity:1" fill="#0ab3e4" d="M 155.5,373.5 C 222.167,373.5 288.833,373.5 355.5,373.5C 355.5,380.833 355.5,388.167 355.5,395.5C 342.167,395.5 328.833,395.5 315.5,395.5C 315.5,397.833 315.5,400.167 315.5,402.5C 302.167,402.5 288.833,402.5 275.5,402.5C 275.5,400.167 275.5,397.833 275.5,395.5C 262.167,395.5 248.833,395.5 235.5,395.5C 235.5,397.833 235.5,400.167 235.5,402.5C 222.167,402.5 208.833,402.5 195.5,402.5C 195.5,400.167 195.5,397.833 195.5,395.5C 182.167,395.5 168.833,395.5 155.5,395.5C 155.5,388.167 155.5,380.833 155.5,373.5 Z"/></g>
<g><path style="opacity:1" fill="#08afe8" d="M 195.5,402.5 C 208.833,402.5 222.167,402.5 235.5,402.5C 235.5,406.5 235.5,410.5 235.5,414.5C 222.167,414.5 208.833,414.5 195.5,414.5C 195.5,410.5 195.5,406.5 195.5,402.5 Z"/></g>
<g><path style="opacity:1" fill="#08afe8" d="M 275.5,402.5 C 288.833,402.5 302.167,402.5 315.5,402.5C 315.5,406.5 315.5,410.5 315.5,414.5C 302.167,414.5 288.833,414.5 275.5,414.5C 275.5,410.5 275.5,406.5 275.5,402.5 Z"/></g>
<g><path style="opacity:1" fill="#07adeb" d="M 195.5,414.5 C 208.833,414.5 222.167,414.5 235.5,414.5C 235.5,420.5 235.5,426.5 235.5,432.5C 222.167,432.5 208.833,432.5 195.5,432.5C 195.5,426.5 195.5,420.5 195.5,414.5 Z"/></g>
<g><path style="opacity:1" fill="#07adeb" d="M 275.5,414.5 C 288.833,414.5 302.167,414.5 315.5,414.5C 315.5,420.5 315.5,426.5 315.5,432.5C 302.167,432.5 288.833,432.5 275.5,432.5C 275.5,426.5 275.5,420.5 275.5,414.5 Z"/></g>
<g><path style="opacity:0.994" fill="#05a9ef" d="M 195.5,432.5 C 208.833,432.5 222.167,432.5 235.5,432.5C 240.106,438.444 245.106,444.11 250.5,449.5C 232.167,449.5 213.833,449.5 195.5,449.5C 195.5,443.833 195.5,438.167 195.5,432.5 Z"/></g>
<g><path style="opacity:0.996" fill="#05a9ef" d="M 275.5,432.5 C 288.833,432.5 302.167,432.5 315.5,432.5C 315.5,438.167 315.5,443.833 315.5,449.5C 297.167,449.5 278.833,449.5 260.5,449.5C 265.894,444.11 270.894,438.444 275.5,432.5 Z"/></g>
<g><path style="opacity:0.994" fill="#04a7f2" d="M 195.5,449.5 C 213.833,449.5 232.167,449.5 250.5,449.5C 252.148,450.81 253.814,452.143 255.5,453.5C 257.186,452.143 258.852,450.81 260.5,449.5C 278.833,449.5 297.167,449.5 315.5,449.5C 315.657,450.873 315.49,452.207 315,453.5C 311.298,457.37 307.464,461.037 303.5,464.5C 271.5,463.167 239.5,463.167 207.5,464.5C 203.536,461.037 199.702,457.37 196,453.5C 195.51,452.207 195.343,450.873 195.5,449.5 Z"/></g>
<g><path style="opacity:0.992" fill="#03a4f5" d="M 303.5,464.5 C 296.5,472.167 289.167,479.5 281.5,486.5C 264.167,485.167 246.833,485.167 229.5,486.5C 221.833,479.5 214.5,472.167 207.5,464.5C 239.5,463.167 271.5,463.167 303.5,464.5 Z"/></g>
<g><path style="opacity:0.953" fill="#05a2fa" d="M 281.5,486.5 C 273.473,495.194 265.14,503.527 256.5,511.5C 255.833,511.5 255.167,511.5 254.5,511.5C 245.86,503.527 237.527,495.194 229.5,486.5C 246.833,485.167 264.167,485.167 281.5,486.5 Z"/></g>
</svg>
