<?xml version="1.0" encoding="UTF-8"?>
<!DOCTYPE svg PUBLIC "-//W3C//DTD SVG 1.1//EN" "http://www.w3.org/Graphics/SVG/1.1/DTD/svg11.dtd">
<svg xmlns="http://www.w3.org/2000/svg" version="1.1" width="512px" height="512px" style="shape-rendering:geometricPrecision; text-rendering:geometricPrecision; image-rendering:optimizeQuality; fill-rule:evenodd; clip-rule:evenodd" xmlns:xlink="http://www.w3.org/1999/xlink">
<g><path style="opacity:0.991" fill="#28f29a" d="M 137.5,-0.5 C 149.5,-0.5 161.5,-0.5 173.5,-0.5C 196.919,2.1952 218.585,9.86186 238.5,22.5C 182.833,22.5 127.167,22.5 71.5,22.5C 91.8424,10.0526 113.842,2.38596 137.5,-0.5 Z"/></g>
<g><path style="opacity:0.99" fill="#28f29a" d="M 337.5,-0.5 C 349.5,-0.5 361.5,-0.5 373.5,-0.5C 397.158,2.38596 419.158,10.0526 439.5,22.5C 384.331,22.8323 329.331,22.499 274.5,21.5C 285.82,13.9933 298.154,8.49335 311.5,5C 320.237,2.82092 328.903,0.98759 337.5,-0.5 Z"/></g>
<g><path style="opacity:0.991" fill="#27ef9e" d="M 274.5,21.5 C 329.331,22.499 384.331,22.8323 439.5,22.5C 449.383,28.3846 458.383,35.3846 466.5,43.5C 439.833,43.5 413.167,43.5 386.5,43.5C 365.149,38.4776 343.816,38.8109 322.5,44.5C 277.003,43.5012 231.336,43.1679 185.5,43.5C 175.577,41.5109 165.577,40.1776 155.5,39.5C 145.09,40.1282 134.757,41.4615 124.5,43.5C 97.8333,43.5 71.1667,43.5 44.5,43.5C 52.6175,35.3846 61.6175,28.3846 71.5,22.5C 127.167,22.5 182.833,22.5 238.5,22.5C 244.401,25.7203 250.067,29.3869 255.5,33.5C 261.383,28.7285 267.717,24.7285 274.5,21.5 Z"/></g>
<g><path style="opacity:0.988" fill="#26eca2" d="M 44.5,43.5 C 71.1667,43.5 97.8333,43.5 124.5,43.5C 114.564,46.7051 104.897,50.7051 95.5,55.5C 75.5,54.8333 55.5,54.1667 35.5,53.5C 38.5285,50.141 41.5285,46.8076 44.5,43.5 Z"/></g>
<g><path style="opacity:0.989" fill="#26eca1" d="M 185.5,43.5 C 231.336,43.1679 277.003,43.5012 322.5,44.5C 313.507,47.3869 304.84,51.0535 296.5,55.5C 269.264,54.1725 241.931,54.1725 214.5,55.5C 205.103,50.628 195.436,46.628 185.5,43.5 Z"/></g>
<g><path style="opacity:0.99" fill="#26eca1" d="M 386.5,43.5 C 413.167,43.5 439.833,43.5 466.5,43.5C 469.471,46.8076 472.471,50.141 475.5,53.5C 455.167,54.1667 434.833,54.8333 414.5,55.5C 405.528,50.5142 396.195,46.5142 386.5,43.5 Z"/></g>
<g><path style="opacity:0.986" fill="#24e9a5" d="M 35.5,53.5 C 55.5,54.1667 75.5,54.8333 95.5,55.5C 83.3275,62.9988 72.6609,72.3322 63.5,83.5C 47.4225,83.1825 31.4225,83.5159 15.5,84.5C 20.598,73.0857 27.2647,62.7524 35.5,53.5 Z"/></g>
<g><path style="opacity:0.984" fill="#24e9a5" d="M 296.5,55.5 C 290.392,59.3977 284.392,63.5644 278.5,68C 270.986,75.6812 263.319,83.1812 255.5,90.5C 247.681,83.1812 240.014,75.6812 232.5,68C 226.608,63.5644 220.608,59.3977 214.5,55.5C 241.931,54.1725 269.264,54.1725 296.5,55.5 Z"/></g>
<g><path style="opacity:0.986" fill="#24e9a5" d="M 475.5,53.5 C 483.31,62.661 489.977,72.661 495.5,83.5C 479.5,83.5 463.5,83.5 447.5,83.5C 438.312,71.974 427.312,62.6406 414.5,55.5C 434.833,54.8333 455.167,54.1667 475.5,53.5 Z"/></g>
<g><path style="opacity:0.984" fill="#22e4ab" d="M 63.5,83.5 C 57.2616,92.7203 51.9283,102.387 47.5,112.5C 33.1667,113.833 18.8333,113.833 4.5,112.5C 7.0996,102.652 10.7663,93.3184 15.5,84.5C 31.4225,83.5159 47.4225,83.1825 63.5,83.5 Z"/></g>
<g><path style="opacity:0.984" fill="#22e4ab" d="M 447.5,83.5 C 463.5,83.5 479.5,83.5 495.5,83.5C 500.283,93.0711 503.95,103.071 506.5,113.5C 492.323,113.171 478.323,113.504 464.5,114.5C 460.141,103.468 454.474,93.1344 447.5,83.5 Z"/></g>
<g><path style="opacity:0.989" fill="#20e0b0" d="M 4.5,112.5 C 18.8333,113.833 33.1667,113.833 47.5,112.5C 45.76,117.387 44.4267,122.387 43.5,127.5C 29.5,127.5 15.5,127.5 1.5,127.5C 2.11684,122.416 3.11684,117.416 4.5,112.5 Z"/></g>
<g><path style="opacity:1" fill="#20e0b0" d="M 335.5,127.5 C 282.167,127.5 228.833,127.5 175.5,127.5C 175.5,123.5 175.5,119.5 175.5,115.5C 228.833,115.5 282.167,115.5 335.5,115.5C 335.5,119.5 335.5,123.5 335.5,127.5 Z"/></g>
<g><path style="opacity:0.988" fill="#20e0b0" d="M 506.5,113.5 C 508.006,118.03 509.006,122.697 509.5,127.5C 495.5,127.5 481.5,127.5 467.5,127.5C 466.656,123.126 465.656,118.793 464.5,114.5C 478.323,113.504 492.323,113.171 506.5,113.5 Z"/></g>
<g><path style="opacity:0.987" fill="#1edcb3" d="M 1.5,127.5 C 15.5,127.5 29.5,127.5 43.5,127.5C 41.0109,136.626 40.0109,145.96 40.5,155.5C 26.8333,155.5 13.1667,155.5 -0.5,155.5C -0.5,149.5 -0.5,143.5 -0.5,137.5C 0.32321,134.316 0.989877,130.983 1.5,127.5 Z"/></g>
<g><path style="opacity:1" fill="#1eddb3" d="M 175.5,127.5 C 228.833,127.5 282.167,127.5 335.5,127.5C 335.5,134.833 335.5,142.167 335.5,149.5C 282.167,149.5 228.833,149.5 175.5,149.5C 175.5,142.167 175.5,134.833 175.5,127.5 Z"/></g>
<g><path style="opacity:0.985" fill="#1eddb3" d="M 467.5,127.5 C 481.5,127.5 495.5,127.5 509.5,127.5C 510.01,130.983 510.677,134.316 511.5,137.5C 511.5,143.5 511.5,149.5 511.5,155.5C 497.833,155.5 484.167,155.5 470.5,155.5C 470.911,145.969 469.911,136.636 467.5,127.5 Z"/></g>
<g><path style="opacity:1" fill="#1ddbb6" d="M 175.5,149.5 C 228.833,149.5 282.167,149.5 335.5,149.5C 335.5,151.5 335.5,153.5 335.5,155.5C 322.167,155.5 308.833,155.5 295.5,155.5C 268.833,155.5 242.167,155.5 215.5,155.5C 202.167,155.5 188.833,155.5 175.5,155.5C 175.5,153.5 175.5,151.5 175.5,149.5 Z"/></g>
<g><path style="opacity:0.999" fill="#1cd8b9" d="M -0.5,155.5 C 13.1667,155.5 26.8333,155.5 40.5,155.5C 85.5,155.5 130.5,155.5 175.5,155.5C 188.833,155.5 202.167,155.5 215.5,155.5C 215.5,163.5 215.5,171.5 215.5,179.5C 143.833,179.5 72.1667,179.5 0.5,179.5C 0.5,178.833 0.166667,178.5 -0.5,178.5C -0.5,170.833 -0.5,163.167 -0.5,155.5 Z"/></g>
<g><path style="opacity:0.999" fill="#1cd8b9" d="M 295.5,155.5 C 308.833,155.5 322.167,155.5 335.5,155.5C 380.5,155.5 425.5,155.5 470.5,155.5C 484.167,155.5 497.833,155.5 511.5,155.5C 511.5,163.167 511.5,170.833 511.5,178.5C 510.833,178.5 510.5,178.833 510.5,179.5C 438.833,179.5 367.167,179.5 295.5,179.5C 295.5,171.5 295.5,163.5 295.5,155.5 Z"/></g>
<g><path style="opacity:0.999" fill="#1ad5bc" d="M 0.5,179.5 C 72.1667,179.5 143.833,179.5 215.5,179.5C 215.5,183.167 215.5,186.833 215.5,190.5C 144.096,190.17 72.7624,190.503 1.5,191.5C 0.837871,187.534 0.504537,183.534 0.5,179.5 Z"/></g>
<g><path style="opacity:0.999" fill="#1ad5bc" d="M 295.5,179.5 C 367.167,179.5 438.833,179.5 510.5,179.5C 510.658,182.902 510.324,186.236 509.5,189.5C 438.238,190.497 366.904,190.83 295.5,190.5C 295.5,186.833 295.5,183.167 295.5,179.5 Z"/></g>
<g><path style="opacity:0.996" fill="#19d3bf" d="M 509.5,189.5 C 508.785,196.411 507.451,203.077 505.5,209.5C 491.5,209.5 477.5,209.5 463.5,209.5C 464.815,204.905 465.815,200.239 466.5,195.5C 422.833,195.5 379.167,195.5 335.5,195.5C 335.5,200.167 335.5,204.833 335.5,209.5C 282.167,209.5 228.833,209.5 175.5,209.5C 175.5,204.833 175.5,200.167 175.5,195.5C 131.833,195.5 88.1667,195.5 44.5,195.5C 45.1667,199.5 45.8333,203.5 46.5,207.5C 33.2076,209.482 19.5409,210.149 5.5,209.5C 3.80403,203.7 2.47069,197.7 1.5,191.5C 72.7624,190.503 144.096,190.17 215.5,190.5C 215.5,192.167 215.5,193.833 215.5,195.5C 242.167,195.5 268.833,195.5 295.5,195.5C 295.5,193.833 295.5,192.167 295.5,190.5C 366.904,190.83 438.238,190.497 509.5,189.5 Z"/></g>
<g><path style="opacity:0.988" fill="#18cfc3" d="M 46.5,207.5 C 49.0076,213.681 51.341,220.015 53.5,226.5C 38.9903,226.171 24.6569,226.504 10.5,227.5C 8.05605,221.819 6.38939,215.819 5.5,209.5C 19.5409,210.149 33.2076,209.482 46.5,207.5 Z"/></g>
<g><path style="opacity:1" fill="#18cfc3" d="M 175.5,209.5 C 228.833,209.5 282.167,209.5 335.5,209.5C 335.5,215.167 335.5,220.833 335.5,226.5C 282.167,226.5 228.833,226.5 175.5,226.5C 175.5,220.833 175.5,215.167 175.5,209.5 Z"/></g>
<g><path style="opacity:0.989" fill="#18cfc3" d="M 463.5,209.5 C 477.5,209.5 491.5,209.5 505.5,209.5C 504.642,215.74 502.975,221.74 500.5,227.5C 486.167,226.833 471.833,226.167 457.5,225.5C 459.697,220.244 461.697,214.911 463.5,209.5 Z"/></g>
<g><path style="opacity:0.987" fill="#16cdc6" d="M 457.5,225.5 C 471.833,226.167 486.167,226.833 500.5,227.5C 499.262,232.895 497.262,237.895 494.5,242.5C 480.205,240.517 465.538,239.85 450.5,240.5C 453.107,235.62 455.44,230.62 457.5,225.5 Z"/></g>
<g><path style="opacity:0.985" fill="#16cdc6" d="M 53.5,226.5 C 55.7365,230.645 57.7365,234.978 59.5,239.5C 45.0095,240.496 30.3428,240.829 15.5,240.5C 13.2628,236.466 11.5961,232.132 10.5,227.5C 24.6569,226.504 38.9903,226.171 53.5,226.5 Z"/></g>
<g><path style="opacity:1" fill="#17cdc5" d="M 175.5,226.5 C 228.833,226.5 282.167,226.5 335.5,226.5C 335.5,229.5 335.5,232.5 335.5,235.5C 282.167,235.5 228.833,235.5 175.5,235.5C 175.5,232.5 175.5,229.5 175.5,226.5 Z"/></g>
<g><path style="opacity:0.984" fill="#15c9ca" d="M 59.5,239.5 C 64.8255,248.495 70.1588,257.495 75.5,266.5C 60.0089,267.496 44.3422,267.83 28.5,267.5C 23.3852,258.935 19.0518,249.935 15.5,240.5C 30.3428,240.829 45.0095,240.496 59.5,239.5 Z"/></g>
<g><path style="opacity:0.984" fill="#15c9ca" d="M 450.5,240.5 C 465.538,239.85 480.205,240.517 494.5,242.5C 491.287,251.257 487.287,259.59 482.5,267.5C 466.5,267.5 450.5,267.5 434.5,267.5C 440.085,258.665 445.419,249.665 450.5,240.5 Z"/></g>
<g><path style="opacity:0.989" fill="#13c5cf" d="M 75.5,266.5 C 80.3989,272.617 85.0656,278.951 89.5,285.5C 72.9915,285.17 56.6581,285.504 40.5,286.5C 35.7641,280.71 31.7641,274.376 28.5,267.5C 44.3422,267.83 60.0089,267.496 75.5,266.5 Z"/></g>
<g><path style="opacity:0.988" fill="#13c5cf" d="M 434.5,267.5 C 450.5,267.5 466.5,267.5 482.5,267.5C 479.236,274.376 475.236,280.71 470.5,286.5C 454.5,285.833 438.5,285.167 422.5,284.5C 426.257,278.65 430.257,272.983 434.5,267.5 Z"/></g>
<g><path style="opacity:0.985" fill="#11c2d2" d="M 422.5,284.5 C 438.5,285.167 454.5,285.833 470.5,286.5C 466.323,293.525 461.656,300.192 456.5,306.5C 439.756,306.818 423.089,306.485 406.5,305.5C 411.602,298.282 416.936,291.282 422.5,284.5 Z"/></g>
<g><path style="opacity:0.991" fill="#11c2d2" d="M 89.5,285.5 C 94.8808,292.216 99.8808,299.216 104.5,306.5C 87.9915,306.17 71.6581,306.504 55.5,307.5C 49.7665,301.037 44.7665,294.037 40.5,286.5C 56.6581,285.504 72.9915,285.17 89.5,285.5 Z"/></g>
<g><path style="opacity:0.983" fill="#10bed7" d="M 406.5,305.5 C 423.089,306.485 439.756,306.818 456.5,306.5C 449.521,316.804 442.188,326.804 434.5,336.5C 418.5,336.5 402.5,336.5 386.5,336.5C 392.352,325.646 399.019,315.313 406.5,305.5 Z"/></g>
<g><path style="opacity:0.986" fill="#10bed7" d="M 104.5,306.5 C 111.82,315.133 118.153,324.466 123.5,334.5C 108.202,336.484 92.5357,337.151 76.5,336.5C 69.12,327.118 62.12,317.452 55.5,307.5C 71.6581,306.504 87.9915,306.17 104.5,306.5 Z"/></g>
<g><path style="opacity:0.984" fill="#0db9dc" d="M 123.5,334.5 C 128.595,342.354 132.928,350.687 136.5,359.5C 121.5,359.5 106.5,359.5 91.5,359.5C 86.2646,352.041 81.2646,344.374 76.5,336.5C 92.5357,337.151 108.202,336.484 123.5,334.5 Z"/></g>
<g><path style="opacity:0.989" fill="#0db9dc" d="M 386.5,336.5 C 402.5,336.5 418.5,336.5 434.5,336.5C 429.735,344.374 424.735,352.041 419.5,359.5C 404.5,359.5 389.5,359.5 374.5,359.5C 377.739,351.353 381.739,343.686 386.5,336.5 Z"/></g>
<g><path style="opacity:0.987" fill="#0cb7e0" d="M 298.5,373.5 C 269.833,373.5 241.167,373.5 212.5,373.5C 227.329,358.448 245.329,352.615 266.5,356C 279.134,358.479 289.801,364.312 298.5,373.5 Z"/></g>
<g><path style="opacity:0.994" fill="#0bb6e0" d="M 91.5,359.5 C 106.5,359.5 121.5,359.5 136.5,359.5C 139.012,363.866 141.012,368.533 142.5,373.5C 127.833,373.5 113.167,373.5 98.5,373.5C 95.6589,369.151 93.3255,364.484 91.5,359.5 Z"/></g>
<g><path style="opacity:0.992" fill="#0bb6e0" d="M 374.5,359.5 C 389.5,359.5 404.5,359.5 419.5,359.5C 417.674,364.484 415.341,369.151 412.5,373.5C 397.794,374.15 383.461,373.483 369.5,371.5C 370.648,367.213 372.315,363.213 374.5,359.5 Z"/></g>
<g><path style="opacity:0.985" fill="#0ab3e4" d="M 369.5,371.5 C 383.461,373.483 397.794,374.15 412.5,373.5C 408.772,382.351 405.439,391.351 402.5,400.5C 388.745,402.455 374.745,403.122 360.5,402.5C 362.116,391.663 365.116,381.33 369.5,371.5 Z"/></g>
<g><path style="opacity:0.984" fill="#0ab3e4" d="M 98.5,373.5 C 113.167,373.5 127.833,373.5 142.5,373.5C 146.38,382.81 149.047,392.477 150.5,402.5C 136.656,402.171 122.99,402.504 109.5,403.5C 106.253,393.432 102.586,383.432 98.5,373.5 Z"/></g>
<g><path style="opacity:0.988" fill="#0ab2e4" d="M 212.5,373.5 C 241.167,373.5 269.833,373.5 298.5,373.5C 306.668,381.495 312.002,391.162 314.5,402.5C 299.99,402.171 285.657,402.504 271.5,403.5C 261.441,394.578 251.108,394.245 240.5,402.5C 225.755,402.184 211.088,402.517 196.5,403.5C 198.711,391.739 204.045,381.739 212.5,373.5 Z"/></g>
<g><path style="opacity:0.988" fill="#08afe8" d="M 150.5,402.5 C 151.738,406.329 152.738,410.329 153.5,414.5C 139.5,414.5 125.5,414.5 111.5,414.5C 110.674,410.864 110.008,407.197 109.5,403.5C 122.99,402.504 136.656,402.171 150.5,402.5 Z"/></g>
<g><path style="opacity:0.989" fill="#08afe8" d="M 240.5,402.5 C 238.317,405.864 236.984,409.53 236.5,413.5C 222.912,414.481 209.246,414.815 195.5,414.5C 195.244,410.731 195.577,407.064 196.5,403.5C 211.088,402.517 225.755,402.184 240.5,402.5 Z"/></g>
<g><path style="opacity:0.992" fill="#08afe8" d="M 314.5,402.5 C 315.36,406.434 315.693,410.434 315.5,414.5C 301.99,414.171 288.656,414.504 275.5,415.5C 274.799,411.398 273.466,407.398 271.5,403.5C 285.657,402.504 299.99,402.171 314.5,402.5 Z"/></g>
<g><path style="opacity:0.991" fill="#08afe8" d="M 402.5,400.5 C 401.5,405.167 400.5,409.833 399.5,414.5C 385.421,414.815 371.421,414.482 357.5,413.5C 358.385,409.712 359.385,406.046 360.5,402.5C 374.745,403.122 388.745,402.455 402.5,400.5 Z"/></g>
<g><path style="opacity:0.982" fill="#07aceb" d="M 357.5,413.5 C 371.421,414.482 385.421,414.815 399.5,414.5C 398.498,420.527 397.498,426.527 396.5,432.5C 382.833,432.5 369.167,432.5 355.5,432.5C 356.313,426.185 356.979,419.852 357.5,413.5 Z"/></g>
<g><path style="opacity:0.986" fill="#07adeb" d="M 111.5,414.5 C 125.5,414.5 139.5,414.5 153.5,414.5C 153.878,419.58 154.545,424.58 155.5,429.5C 154.596,430.209 154.263,431.209 154.5,432.5C 141.167,432.5 127.833,432.5 114.5,432.5C 113.647,426.505 112.647,420.505 111.5,414.5 Z"/></g>
<g><path style="opacity:1" fill="#07aceb" d="M 236.5,413.5 C 235.582,419.775 235.249,426.108 235.5,432.5C 222.167,432.5 208.833,432.5 195.5,432.5C 195.5,426.5 195.5,420.5 195.5,414.5C 209.246,414.815 222.912,414.481 236.5,413.5 Z"/></g>
<g><path style="opacity:1" fill="#07adeb" d="M 315.5,414.5 C 315.5,420.5 315.5,426.5 315.5,432.5C 302.167,432.5 288.833,432.5 275.5,432.5C 275.5,426.833 275.5,421.167 275.5,415.5C 288.656,414.504 301.99,414.171 315.5,414.5 Z"/></g>
<g><path style="opacity:0.991" fill="#05a9ef" d="M 155.5,429.5 C 155.5,436.167 155.5,442.833 155.5,449.5C 141.754,449.815 128.088,449.481 114.5,448.5C 114.5,443.167 114.5,437.833 114.5,432.5C 127.833,432.5 141.167,432.5 154.5,432.5C 154.263,431.209 154.596,430.209 155.5,429.5 Z"/></g>
<g><path style="opacity:1" fill="#05a9ef" d="M 195.5,432.5 C 208.833,432.5 222.167,432.5 235.5,432.5C 235.5,438.167 235.5,443.833 235.5,449.5C 222.167,449.5 208.833,449.5 195.5,449.5C 195.5,443.833 195.5,438.167 195.5,432.5 Z"/></g>
<g><path style="opacity:1" fill="#05a9ef" d="M 275.5,432.5 C 288.833,432.5 302.167,432.5 315.5,432.5C 315.5,438.167 315.5,443.833 315.5,449.5C 302.167,449.5 288.833,449.5 275.5,449.5C 275.5,443.833 275.5,438.167 275.5,432.5 Z"/></g>
<g><path style="opacity:0.989" fill="#05aaef" d="M 355.5,432.5 C 369.167,432.5 382.833,432.5 396.5,432.5C 396.823,439.022 396.49,445.355 395.5,451.5C 382.542,449.519 369.209,448.852 355.5,449.5C 355.5,443.833 355.5,438.167 355.5,432.5 Z"/></g>
<g><path style="opacity:0.989" fill="#04a7f2" d="M 114.5,448.5 C 128.088,449.481 141.754,449.815 155.5,449.5C 155.986,454.426 157.319,459.092 159.5,463.5C 145.167,463.5 130.833,463.5 116.5,463.5C 115.715,458.553 115.049,453.553 114.5,448.5 Z"/></g>
<g><path style="opacity:0.99" fill="#04a7f2" d="M 195.5,449.5 C 208.833,449.5 222.167,449.5 235.5,449.5C 235.818,454.032 235.485,458.366 234.5,462.5C 220.245,463.482 205.912,463.816 191.5,463.5C 193.681,459.092 195.014,454.426 195.5,449.5 Z"/></g>
<g><path style="opacity:0.989" fill="#04a7f2" d="M 275.5,449.5 C 288.833,449.5 302.167,449.5 315.5,449.5C 315.986,454.426 317.319,459.092 319.5,463.5C 305.167,463.5 290.833,463.5 276.5,463.5C 275.559,458.93 275.226,454.263 275.5,449.5 Z"/></g>
<g><path style="opacity:0.99" fill="#04a7f2" d="M 355.5,449.5 C 369.209,448.852 382.542,449.519 395.5,451.5C 395.815,455.371 395.482,459.038 394.5,462.5C 380.245,463.482 365.912,463.816 351.5,463.5C 353.681,459.092 355.014,454.426 355.5,449.5 Z"/></g>
<g><path style="opacity:0.987" fill="#03a4f5" d="M 234.5,462.5 C 233.338,471.48 230.005,479.48 224.5,486.5C 191.833,485.167 159.167,485.167 126.5,486.5C 121.286,479.73 117.952,472.063 116.5,463.5C 130.833,463.5 145.167,463.5 159.5,463.5C 170.167,472.833 180.833,472.833 191.5,463.5C 205.912,463.816 220.245,463.482 234.5,462.5 Z"/></g>
<g><path style="opacity:0.987" fill="#03a4f5" d="M 394.5,462.5 C 393.338,471.48 390.005,479.48 384.5,486.5C 351.833,485.167 319.167,485.167 286.5,486.5C 281.286,479.73 277.952,472.063 276.5,463.5C 290.833,463.5 305.167,463.5 319.5,463.5C 330.167,472.833 340.833,472.833 351.5,463.5C 365.912,463.816 380.245,463.482 394.5,462.5 Z"/></g>
<g><path style="opacity:0.969" fill="#01a0fa" d="M 224.5,486.5 C 215.143,499.846 202.476,508.18 186.5,511.5C 179.167,511.5 171.833,511.5 164.5,511.5C 148.656,507.988 135.989,499.655 126.5,486.5C 159.167,485.167 191.833,485.167 224.5,486.5 Z"/></g>
<g><path style="opacity:0.969" fill="#01a0fa" d="M 384.5,486.5 C 375.143,499.846 362.476,508.18 346.5,511.5C 339.167,511.5 331.833,511.5 324.5,511.5C 308.656,507.988 295.989,499.655 286.5,486.5C 319.167,485.167 351.833,485.167 384.5,486.5 Z"/></g>
</svg>
