<?xml version="1.0" encoding="UTF-8"?>
<!DOCTYPE svg PUBLIC "-//W3C//DTD SVG 1.1//EN" "http://www.w3.org/Graphics/SVG/1.1/DTD/svg11.dtd">
<svg xmlns="http://www.w3.org/2000/svg" version="1.1" width="512px" height="512px" style="shape-rendering:geometricPrecision; text-rendering:geometricPrecision; image-rendering:optimizeQuality; fill-rule:evenodd; clip-rule:evenodd" xmlns:xlink="http://www.w3.org/1999/xlink">
<g><path style="opacity:0.957" fill="#29f499" d="M 354.5,-0.5 C 365.833,-0.5 377.167,-0.5 388.5,-0.5C 398.789,1.0254 408.789,3.69207 418.5,7.5C 386.833,8.83333 355.167,8.83333 323.5,7.5C 333.728,4.02718 344.061,1.36051 354.5,-0.5 Z"/></g>
<g><path style="opacity:0.989" fill="#28f29b" d="M 323.5,7.5 C 355.167,8.83333 386.833,8.83333 418.5,7.5C 428.867,10.8508 438.533,15.5175 447.5,21.5C 396.931,22.8302 346.264,22.8302 295.5,21.5C 304.237,15.7983 313.57,11.1316 323.5,7.5 Z"/></g>
<g><path style="opacity:0.991" fill="#27ef9e" d="M 295.5,21.5 C 346.264,22.8302 396.931,22.8302 447.5,21.5C 457.32,27.4187 465.987,34.752 473.5,43.5C 448.833,43.5 424.167,43.5 399.5,43.5C 390.25,41.5136 380.916,40.1803 371.5,39.5C 362.084,40.1803 352.75,41.5136 343.5,43.5C 318.833,43.5 294.167,43.5 269.5,43.5C 277.013,34.752 285.68,27.4187 295.5,21.5 Z"/></g>
<g><path style="opacity:0.985" fill="#26eca1" d="M 269.5,43.5 C 294.167,43.5 318.833,43.5 343.5,43.5C 335.326,46.584 327.326,50.2507 319.5,54.5C 299.424,54.1793 279.424,54.5126 259.5,55.5C 261.882,50.7524 265.216,46.7524 269.5,43.5 Z"/></g>
<g><path style="opacity:0.987" fill="#25eca1" d="M 399.5,43.5 C 424.167,43.5 448.833,43.5 473.5,43.5C 477.212,46.2109 480.212,49.5442 482.5,53.5C 463.402,54.1548 444.402,54.8215 425.5,55.5C 417.035,50.932 408.368,46.932 399.5,43.5 Z"/></g>
<g><path style="opacity:0.988" fill="#24e9a5" d="M 482.5,53.5 C 489.658,62.6913 495.658,72.6913 500.5,83.5C 484.991,83.1705 469.658,83.5038 454.5,84.5C 446.5,73.1667 436.833,63.5 425.5,55.5C 444.402,54.8215 463.402,54.1548 482.5,53.5 Z"/></g>
<g><path style="opacity:0.984" fill="#24e9a5" d="M 319.5,54.5 C 307.21,62.4563 296.877,72.4563 288.5,84.5C 273.265,83.1771 257.931,83.1771 242.5,84.5C 246.405,73.6742 252.072,64.0075 259.5,55.5C 279.424,54.5126 299.424,54.1793 319.5,54.5 Z"/></g>
<g><path style="opacity:0.984" fill="#22e4ab" d="M 288.5,84.5 C 282.529,93.7762 278.196,103.776 275.5,114.5C 261.5,113.833 247.5,113.167 233.5,112.5C 235.325,102.694 238.325,93.3606 242.5,84.5C 257.931,83.1771 273.265,83.1771 288.5,84.5 Z"/></g>
<g><path style="opacity:1" fill="#21e5ab" d="M 391.5,113.5 C 378.167,113.5 364.833,113.5 351.5,113.5C 351.795,115.735 351.461,117.735 350.5,119.5C 350.5,106.167 350.5,92.8333 350.5,79.5C 364.167,79.5 377.833,79.5 391.5,79.5C 391.5,90.8333 391.5,102.167 391.5,113.5 Z"/></g>
<g><path style="opacity:0.986" fill="#22e4ab" d="M 500.5,83.5 C 504.374,92.1235 507.041,101.124 508.5,110.5C 508.5,111.5 508.5,112.5 508.5,113.5C 494.754,113.185 481.088,113.519 467.5,114.5C 464.804,103.776 460.471,93.7762 454.5,84.5C 469.658,83.5038 484.991,83.1705 500.5,83.5 Z"/></g>
<g><path style="opacity:0.988" fill="#20e0b0" d="M 233.5,112.5 C 247.5,113.167 261.5,113.833 275.5,114.5C 273.858,119.68 272.858,125.014 272.5,130.5C 271.596,129.791 271.263,128.791 271.5,127.5C 258.167,127.5 244.833,127.5 231.5,127.5C 231.98,122.47 232.647,117.47 233.5,112.5 Z"/></g>
<g><path style="opacity:1" fill="#1fe1b0" d="M 391.5,113.5 C 391.5,115.5 391.5,117.5 391.5,119.5C 404.833,119.5 418.167,119.5 431.5,119.5C 431.5,122.167 431.5,124.833 431.5,127.5C 391.5,127.5 351.5,127.5 311.5,127.5C 311.5,134.833 311.5,142.167 311.5,149.5C 311.5,151.5 311.5,153.5 311.5,155.5C 311.5,156.833 311.5,158.167 311.5,159.5C 310.504,146.344 310.171,133.01 310.5,119.5C 323.833,119.5 337.167,119.5 350.5,119.5C 351.461,117.735 351.795,115.735 351.5,113.5C 364.833,113.5 378.167,113.5 391.5,113.5 Z"/></g>
<g><path style="opacity:0.992" fill="#20e0b0" d="M 508.5,110.5 C 509.684,114.461 510.684,118.461 511.5,122.5C 511.5,124.5 511.5,126.5 511.5,128.5C 497.665,126.845 483.999,127.178 470.5,129.5C 470.034,124.362 469.034,119.362 467.5,114.5C 481.088,113.519 494.754,113.185 508.5,113.5C 508.5,112.5 508.5,111.5 508.5,110.5 Z"/></g>
<g><path style="opacity:0.992" fill="#1eddb4" d="M 231.5,127.5 C 244.833,127.5 258.167,127.5 271.5,127.5C 271.263,128.791 271.596,129.791 272.5,130.5C 272.227,138.888 272.56,147.221 273.5,155.5C 259.5,155.5 245.5,155.5 231.5,155.5C 230.911,146.085 230.911,136.751 231.5,127.5 Z"/></g>
<g><path style="opacity:1" fill="#1eddb3" d="M 431.5,127.5 C 431.5,134.833 431.5,142.167 431.5,149.5C 391.5,149.5 351.5,149.5 311.5,149.5C 311.5,142.167 311.5,134.833 311.5,127.5C 351.5,127.5 391.5,127.5 431.5,127.5 Z"/></g>
<g><path style="opacity:0.989" fill="#1edcb3" d="M 511.5,128.5 C 511.5,137.833 511.5,147.167 511.5,156.5C 511.167,156.5 510.833,156.5 510.5,156.5C 497.01,155.504 483.344,155.171 469.5,155.5C 470.442,146.887 470.775,138.221 470.5,129.5C 483.999,127.178 497.665,126.845 511.5,128.5 Z"/></g>
<g><path style="opacity:1" fill="#1ddbb6" d="M 311.5,149.5 C 351.5,149.5 391.5,149.5 431.5,149.5C 431.5,151.5 431.5,153.5 431.5,155.5C 391.5,155.5 351.5,155.5 311.5,155.5C 311.5,153.5 311.5,151.5 311.5,149.5 Z"/></g>
<g><path style="opacity:0.991" fill="#1cd8b9" d="M 168.5,178.5 C 122.336,179.499 76.003,179.832 29.5,179.5C 53.2401,156.866 81.5734,147.699 114.5,152C 135.394,155.282 153.394,164.115 168.5,178.5 Z"/></g>
<g><path style="opacity:0.986" fill="#1cd8b9" d="M 231.5,155.5 C 245.5,155.5 259.5,155.5 273.5,155.5C 274.625,163.874 276.959,171.874 280.5,179.5C 250.167,179.5 219.833,179.5 189.5,179.5C 201.264,167.768 215.264,159.768 231.5,155.5 Z"/></g>
<g><path style="opacity:1" fill="#1cd9b8" d="M 311.5,155.5 C 351.5,155.5 391.5,155.5 431.5,155.5C 431.5,156.833 431.5,158.167 431.5,159.5C 418.167,159.5 404.833,159.5 391.5,159.5C 391.5,166.167 391.5,172.833 391.5,179.5C 378.167,179.5 364.833,179.5 351.5,179.5C 351.815,183.371 351.482,187.038 350.5,190.5C 350.5,180.167 350.5,169.833 350.5,159.5C 337.5,159.5 324.5,159.5 311.5,159.5C 311.5,158.167 311.5,156.833 311.5,155.5 Z"/></g>
<g><path style="opacity:0.985" fill="#1cd8b9" d="M 469.5,155.5 C 483.344,155.171 497.01,155.504 510.5,156.5C 510.07,164.869 508.403,172.869 505.5,180.5C 491.343,179.504 477.01,179.171 462.5,179.5C 465.761,171.794 468.094,163.794 469.5,155.5 Z"/></g>
<g><path style="opacity:0.995" fill="#1ad5bc" d="M 168.5,178.5 C 175.29,183.355 182.29,183.688 189.5,179.5C 219.833,179.5 250.167,179.5 280.5,179.5C 282.438,183.043 284.105,186.71 285.5,190.5C 196.833,190.5 108.167,190.5 19.5,190.5C 22.1231,186.209 25.4564,182.543 29.5,179.5C 76.003,179.832 122.336,179.499 168.5,178.5 Z"/></g>
<g><path style="opacity:0.987" fill="#1ad5bc" d="M 462.5,179.5 C 477.01,179.171 491.343,179.504 505.5,180.5C 504.899,183.968 503.899,187.301 502.5,190.5C 487.324,190.829 472.324,190.496 457.5,189.5C 459.167,186.167 460.833,182.833 462.5,179.5 Z"/></g>
<g><path style="opacity:0.988" fill="#19d3bf" d="M 19.5,190.5 C 108.167,190.5 196.833,190.5 285.5,190.5C 290.088,197.096 295.088,203.43 300.5,209.5C 283.658,209.17 266.992,209.503 250.5,210.5C 247.441,205.387 244.608,200.053 242,194.5C 232.612,198.068 224.112,203.068 216.5,209.5C 191.833,209.5 167.167,209.5 142.5,209.5C 113.373,185.897 84.3726,186.23 55.5,210.5C 40.0089,209.504 24.3422,209.17 8.5,209.5C 10.977,202.385 14.6436,196.052 19.5,190.5 Z"/></g>
<g><path style="opacity:1" fill="#1ad3bd" d="M 391.5,179.5 C 391.5,186.167 391.5,192.833 391.5,199.5C 377.833,199.5 364.167,199.5 350.5,199.5C 350.5,196.5 350.5,193.5 350.5,190.5C 351.482,187.038 351.815,183.371 351.5,179.5C 364.833,179.5 378.167,179.5 391.5,179.5 Z"/></g>
<g><path style="opacity:0.991" fill="#19d3bf" d="M 457.5,189.5 C 472.324,190.496 487.324,190.829 502.5,190.5C 499.773,196.954 496.773,203.288 493.5,209.5C 476.658,209.83 459.992,209.497 443.5,208.5C 448.423,202.306 453.089,195.973 457.5,189.5 Z"/></g>
<g><path style="opacity:0.99" fill="#18cfc3" d="M 8.5,209.5 C 24.3422,209.17 40.0089,209.504 55.5,210.5C 51.4056,215.92 47.7389,221.587 44.5,227.5C 30.6766,226.504 16.6766,226.171 2.5,226.5C 3.33172,220.334 5.33172,214.667 8.5,209.5 Z"/></g>
<g><path style="opacity:0.988" fill="#18d0c3" d="M 142.5,209.5 C 167.167,209.5 191.833,209.5 216.5,209.5C 211.985,213.99 206.651,217.324 200.5,219.5C 199.526,221.743 199.192,224.076 199.5,226.5C 186.167,226.5 172.833,226.5 159.5,226.5C 159.802,223.941 159.468,221.607 158.5,219.5C 152.366,217.351 147.033,214.017 142.5,209.5 Z"/></g>
<g><path style="opacity:0.991" fill="#18cfc3" d="M 300.5,209.5 C 306.903,215.244 313.569,220.577 320.5,225.5C 301.167,226.167 281.833,226.833 262.5,227.5C 257.755,222.411 253.755,216.745 250.5,210.5C 266.992,209.503 283.658,209.17 300.5,209.5 Z"/></g>
<g><path style="opacity:0.988" fill="#18d0c3" d="M 443.5,208.5 C 459.992,209.497 476.658,209.83 493.5,209.5C 490.225,215.731 486.225,221.397 481.5,226.5C 461.424,226.821 441.424,226.487 421.5,225.5C 429.38,220.629 436.714,214.963 443.5,208.5 Z"/></g>
<g><path style="opacity:0.981" fill="#16cdc6" d="M 320.5,225.5 C 354.233,243.895 387.899,243.895 421.5,225.5C 441.424,226.487 461.424,226.821 481.5,226.5C 477.539,232.129 472.873,237.129 467.5,241.5C 403.335,240.501 339.002,240.168 274.5,240.5C 269.792,236.793 265.792,232.46 262.5,227.5C 281.833,226.833 301.167,226.167 320.5,225.5 Z"/></g>
<g><path style="opacity:0.989" fill="#16cdc6" d="M 2.5,226.5 C 16.6766,226.171 30.6766,226.504 44.5,227.5C 43.3023,231.98 41.969,236.313 40.5,240.5C 26.8333,240.5 13.1667,240.5 -0.5,240.5C -0.5,239.5 -0.5,238.5 -0.5,237.5C 0.393406,233.809 1.39341,230.142 2.5,226.5 Z"/></g>
<g><path style="opacity:1" fill="#16cdc6" d="M 159.5,226.5 C 172.833,226.5 186.167,226.5 199.5,226.5C 199.5,231.167 199.5,235.833 199.5,240.5C 186.167,240.5 172.833,240.5 159.5,240.5C 159.5,235.833 159.5,231.167 159.5,226.5 Z"/></g>
<g><path style="opacity:0.987" fill="#15c9ca" d="M -0.5,240.5 C 13.1667,240.5 26.8333,240.5 40.5,240.5C 39.99,249.656 40.6566,258.656 42.5,267.5C 28.4213,267.815 14.4213,267.482 0.5,266.5C 0.5,265.833 0.166667,265.5 -0.5,265.5C -0.5,257.167 -0.5,248.833 -0.5,240.5 Z"/></g>
<g><path style="opacity:0.994" fill="#14c9c9" d="M 158.5,219.5 C 159.468,221.607 159.802,223.941 159.5,226.5C 159.5,231.167 159.5,235.833 159.5,240.5C 172.833,240.5 186.167,240.5 199.5,240.5C 199.666,247.508 199.5,254.508 199,261.5C 196.63,264.039 194.13,266.372 191.5,268.5C 172.674,267.503 153.674,267.17 134.5,267.5C 142.131,259.368 149.964,251.368 158,243.5C 158.5,235.507 158.666,227.507 158.5,219.5 Z"/></g>
<g><path style="opacity:0.992" fill="#15c9ca" d="M 274.5,240.5 C 339.002,240.168 403.335,240.501 467.5,241.5C 455.735,253.243 442.068,262.243 426.5,268.5C 389.833,267.167 353.167,267.167 316.5,268.5C 300.427,262.14 286.427,252.807 274.5,240.5 Z"/></g>
<g><path style="opacity:0.994" fill="#13c6ce" d="M 426.5,268.5 C 403.926,278.203 380.259,281.87 355.5,279.5C 355.59,282.152 354.924,284.485 353.5,286.5C 338.676,285.504 323.676,285.171 308.5,285.5C 311.932,280.21 314.599,274.543 316.5,268.5C 353.167,267.167 389.833,267.167 426.5,268.5 Z"/></g>
<g><path style="opacity:0.985" fill="#13c6cf" d="M 0.5,266.5 C 14.4213,267.482 28.4213,267.815 42.5,267.5C 44.205,273.956 46.8717,279.956 50.5,285.5C 35.324,285.171 20.324,285.504 5.5,286.5C 2.64341,280.239 0.976744,273.572 0.5,266.5 Z"/></g>
<g><path style="opacity:0.989" fill="#13c5ce" d="M 134.5,267.5 C 153.674,267.17 172.674,267.503 191.5,268.5C 185.833,274.833 179.833,280.833 173.5,286.5C 160.344,285.504 147.01,285.171 133.5,285.5C 130.369,282.871 127.369,280.038 124.5,277C 127.703,273.629 131.036,270.462 134.5,267.5 Z"/></g>
<g><path style="opacity:0.988" fill="#11c2d2" d="M 50.5,285.5 C 57.3449,294.351 65.6783,301.351 75.5,306.5C 55.6596,306.17 35.9929,306.503 16.5,307.5C 11.5476,301.265 7.88094,294.265 5.5,286.5C 20.324,285.504 35.324,285.171 50.5,285.5 Z"/></g>
<g><path style="opacity:0.968" fill="#12c3d1" d="M 133.5,285.5 C 147.01,285.171 160.344,285.504 173.5,286.5C 167.203,293.298 160.703,299.965 154,306.5C 146.964,299.632 140.131,292.632 133.5,285.5 Z"/></g>
<g><path style="opacity:0.988" fill="#11c2d2" d="M 308.5,285.5 C 323.676,285.171 338.676,285.504 353.5,286.5C 351.202,293.764 347.868,300.43 343.5,306.5C 323.993,306.83 304.659,306.497 285.5,305.5C 294.374,300.297 302.041,293.631 308.5,285.5 Z"/></g>
<g><path style="opacity:0.992" fill="#0fbed7" d="M 285.5,305.5 C 304.659,306.497 323.993,306.83 343.5,306.5C 337.612,316.391 329.945,324.725 320.5,331.5C 319.548,333.045 319.215,334.712 319.5,336.5C 306.167,336.5 292.833,336.5 279.5,336.5C 279.827,327.318 279.493,318.318 278.5,309.5C 280.663,307.917 282.996,306.584 285.5,305.5 Z"/></g>
<g><path style="opacity:0.992" fill="#0fbed7" d="M 75.5,306.5 C 76.7206,307.028 77.8873,307.695 79,308.5C 79.4998,317.827 79.6665,327.161 79.5,336.5C 66.1667,336.5 52.8333,336.5 39.5,336.5C 39.7845,334.585 39.4511,332.919 38.5,331.5C 29.3865,325.056 22.0531,317.056 16.5,307.5C 35.9929,306.503 55.6596,306.17 75.5,306.5 Z"/></g>
<g><path style="opacity:1" fill="#0db9dc" d="M 39.5,336.5 C 52.8333,336.5 66.1667,336.5 79.5,336.5C 79.5,344.167 79.5,351.833 79.5,359.5C 66.1667,359.5 52.8333,359.5 39.5,359.5C 39.5,351.833 39.5,344.167 39.5,336.5 Z"/></g>
<g><path style="opacity:1" fill="#0db9dc" d="M 279.5,336.5 C 292.833,336.5 306.167,336.5 319.5,336.5C 319.5,344.167 319.5,351.833 319.5,359.5C 306.167,359.5 292.833,359.5 279.5,359.5C 279.5,351.833 279.5,344.167 279.5,336.5 Z"/></g>
<g><path style="opacity:0.988" fill="#0cb7e0" d="M 226.5,373.5 C 195.329,373.831 164.329,373.498 133.5,372.5C 148.608,355.294 167.608,348.461 190.5,352C 205.195,354.84 217.195,362.007 226.5,373.5 Z"/></g>
<g><path style="opacity:1" fill="#0bb6e0" d="M 39.5,359.5 C 52.8333,359.5 66.1667,359.5 79.5,359.5C 79.5,364.167 79.5,368.833 79.5,373.5C 66.1667,373.5 52.8333,373.5 39.5,373.5C 39.5,368.833 39.5,364.167 39.5,359.5 Z"/></g>
<g><path style="opacity:1" fill="#0bb6e0" d="M 279.5,359.5 C 292.833,359.5 306.167,359.5 319.5,359.5C 319.5,364.167 319.5,368.833 319.5,373.5C 306.167,373.5 292.833,373.5 279.5,373.5C 279.5,368.833 279.5,364.167 279.5,359.5 Z"/></g>
<g><path style="opacity:0.989" fill="#0ab3e4" d="M 133.5,372.5 C 164.329,373.498 195.329,373.831 226.5,373.5C 232.919,381.345 236.919,390.345 238.5,400.5C 225.031,402.161 211.364,403.161 197.5,403.5C 189.97,391.852 179.97,389.352 167.5,396C 164.879,398.114 162.879,400.614 161.5,403.5C 147.598,402.817 133.598,402.151 119.5,401.5C 121.8,390.57 126.467,380.903 133.5,372.5 Z"/></g>
<g><path style="opacity:1" fill="#0ab2e4" d="M 39.5,373.5 C 52.8333,373.5 66.1667,373.5 79.5,373.5C 79.5,383.167 79.5,392.833 79.5,402.5C 66.1667,402.5 52.8333,402.5 39.5,402.5C 39.5,392.833 39.5,383.167 39.5,373.5 Z"/></g>
<g><path style="opacity:1" fill="#0ab2e4" d="M 279.5,373.5 C 292.833,373.5 306.167,373.5 319.5,373.5C 319.5,383.167 319.5,392.833 319.5,402.5C 306.167,402.5 292.833,402.5 279.5,402.5C 279.5,392.833 279.5,383.167 279.5,373.5 Z"/></g>
<g><path style="opacity:0.994" fill="#08afe8" d="M 119.5,401.5 C 133.598,402.151 147.598,402.817 161.5,403.5C 160.727,407.14 160.06,410.807 159.5,414.5C 146.167,414.5 132.833,414.5 119.5,414.5C 119.737,413.209 119.404,412.209 118.5,411.5C 119.414,408.272 119.747,404.939 119.5,401.5 Z"/></g>
<g><path style="opacity:0.987" fill="#08afe8" d="M 238.5,400.5 C 239.486,404.97 239.819,409.637 239.5,414.5C 226.167,414.5 212.833,414.5 199.5,414.5C 199.737,413.209 199.404,412.209 198.5,411.5C 198.599,408.763 198.265,406.096 197.5,403.5C 211.364,403.161 225.031,402.161 238.5,400.5 Z"/></g>
<g><path style="opacity:1" fill="#09aeeb" d="M 38.5,331.5 C 39.4511,332.919 39.7845,334.585 39.5,336.5C 39.5,344.167 39.5,351.833 39.5,359.5C 39.5,364.167 39.5,368.833 39.5,373.5C 39.5,383.167 39.5,392.833 39.5,402.5C 52.8333,402.5 66.1667,402.5 79.5,402.5C 79.4672,406.869 79.8005,411.202 80.5,415.5C 66.9123,414.519 53.2456,414.185 39.5,414.5C 38.517,386.878 38.1837,359.211 38.5,331.5 Z"/></g>
<g><path style="opacity:0.998" fill="#08aeec" d="M 278.5,309.5 C 279.493,318.318 279.827,327.318 279.5,336.5C 279.5,344.167 279.5,351.833 279.5,359.5C 279.5,364.167 279.5,368.833 279.5,373.5C 279.5,383.167 279.5,392.833 279.5,402.5C 292.833,402.5 306.167,402.5 319.5,402.5C 319.5,406.5 319.5,410.5 319.5,414.5C 305.833,414.5 292.167,414.5 278.5,414.5C 278.5,379.5 278.5,344.5 278.5,309.5 Z"/></g>
<g><path style="opacity:0.988" fill="#07adeb" d="M 39.5,414.5 C 53.2456,414.185 66.9123,414.519 80.5,415.5C 80.8581,421.29 81.8581,426.956 83.5,432.5C 69.5,432.5 55.5,432.5 41.5,432.5C 39.9365,426.645 39.2698,420.645 39.5,414.5 Z"/></g>
<g><path style="opacity:1" fill="#07adeb" d="M 119.5,414.5 C 132.833,414.5 146.167,414.5 159.5,414.5C 159.5,420.5 159.5,426.5 159.5,432.5C 146.167,432.5 132.833,432.5 119.5,432.5C 119.5,426.5 119.5,420.5 119.5,414.5 Z"/></g>
<g><path style="opacity:1" fill="#07adeb" d="M 199.5,414.5 C 212.833,414.5 226.167,414.5 239.5,414.5C 239.5,420.5 239.5,426.5 239.5,432.5C 226.167,432.5 212.833,432.5 199.5,432.5C 199.5,426.5 199.5,420.5 199.5,414.5 Z"/></g>
<g><path style="opacity:0.987" fill="#07adeb" d="M 278.5,414.5 C 292.167,414.5 305.833,414.5 319.5,414.5C 319.613,421.255 318.947,427.922 317.5,434.5C 303.745,432.545 289.745,431.878 275.5,432.5C 277.272,426.639 278.272,420.639 278.5,414.5 Z"/></g>
<g><path style="opacity:0.988" fill="#06aaef" d="M 41.5,432.5 C 55.5,432.5 69.5,432.5 83.5,432.5C 86.5528,438.263 89.8861,443.93 93.5,449.5C 77.8333,449.5 62.1667,449.5 46.5,449.5C 44.0611,444.081 42.3945,438.415 41.5,432.5 Z"/></g>
<g><path style="opacity:1" fill="#05a9ef" d="M 119.5,432.5 C 132.833,432.5 146.167,432.5 159.5,432.5C 159.5,438.167 159.5,443.833 159.5,449.5C 146.167,449.5 132.833,449.5 119.5,449.5C 119.5,443.833 119.5,438.167 119.5,432.5 Z"/></g>
<g><path style="opacity:1" fill="#05a9ef" d="M 199.5,432.5 C 212.833,432.5 226.167,432.5 239.5,432.5C 239.5,438.167 239.5,443.833 239.5,449.5C 226.167,449.5 212.833,449.5 199.5,449.5C 199.5,443.833 199.5,438.167 199.5,432.5 Z"/></g>
<g><path style="opacity:0.986" fill="#06aaef" d="M 275.5,432.5 C 289.745,431.878 303.745,432.545 317.5,434.5C 316.292,439.673 314.625,444.673 312.5,449.5C 296.991,449.83 281.658,449.496 266.5,448.5C 269.541,443.142 272.541,437.808 275.5,432.5 Z"/></g>
<g><path style="opacity:0.987" fill="#04a7f2" d="M 266.5,448.5 C 281.658,449.496 296.991,449.83 312.5,449.5C 310.692,454.45 308.358,459.117 305.5,463.5C 286.659,463.83 267.993,463.497 249.5,462.5C 255.749,458.589 261.415,453.922 266.5,448.5 Z"/></g>
<g><path style="opacity:0.986" fill="#04a7f2" d="M 46.5,449.5 C 62.1667,449.5 77.8333,449.5 93.5,449.5C 98.2535,454.591 103.587,458.924 109.5,462.5C 91.0075,463.497 72.3408,463.83 53.5,463.5C 50.6417,459.117 48.3084,454.45 46.5,449.5 Z"/></g>
<g><path style="opacity:1" fill="#04a7f2" d="M 119.5,449.5 C 132.833,449.5 146.167,449.5 159.5,449.5C 159.5,454.167 159.5,458.833 159.5,463.5C 146.167,463.5 132.833,463.5 119.5,463.5C 119.5,458.833 119.5,454.167 119.5,449.5 Z"/></g>
<g><path style="opacity:1" fill="#04a7f2" d="M 199.5,449.5 C 212.833,449.5 226.167,449.5 239.5,449.5C 239.5,454.167 239.5,458.833 239.5,463.5C 226.167,463.5 212.833,463.5 199.5,463.5C 199.5,458.833 199.5,454.167 199.5,449.5 Z"/></g>
<g><path style="opacity:0.994" fill="#03a4f5" d="M 118.5,411.5 C 119.404,412.209 119.737,413.209 119.5,414.5C 119.5,420.5 119.5,426.5 119.5,432.5C 119.5,438.167 119.5,443.833 119.5,449.5C 119.5,454.167 119.5,458.833 119.5,463.5C 132.833,463.5 146.167,463.5 159.5,463.5C 159.5,470.833 159.5,478.167 159.5,485.5C 130.329,485.169 101.329,485.502 72.5,486.5C 65.0643,479.732 58.7309,472.065 53.5,463.5C 72.3408,463.83 91.0075,463.497 109.5,462.5C 112.122,464.644 115.122,465.977 118.5,466.5C 118.5,448.167 118.5,429.833 118.5,411.5 Z"/></g>
<g><path style="opacity:0.996" fill="#03a4f6" d="M 198.5,411.5 C 199.404,412.209 199.737,413.209 199.5,414.5C 199.5,420.5 199.5,426.5 199.5,432.5C 199.5,438.167 199.5,443.833 199.5,449.5C 199.5,454.167 199.5,458.833 199.5,463.5C 212.833,463.5 226.167,463.5 239.5,463.5C 239.343,464.873 239.51,466.207 240,467.5C 243.399,466.218 246.566,464.551 249.5,462.5C 267.993,463.497 286.659,463.83 305.5,463.5C 300.269,472.065 293.936,479.732 286.5,486.5C 257.671,485.502 228.671,485.169 199.5,485.5C 199.5,488.167 199.5,490.833 199.5,493.5C 199.5,499.5 199.5,505.5 199.5,511.5C 199.167,511.5 198.833,511.5 198.5,511.5C 198.5,478.167 198.5,444.833 198.5,411.5 Z"/></g>
<g><path style="opacity:0.996" fill="#02a1f8" d="M 72.5,486.5 C 101.329,485.502 130.329,485.169 159.5,485.5C 159.5,488.167 159.5,490.833 159.5,493.5C 133.5,493.5 107.5,493.5 81.5,493.5C 78.2139,491.549 75.2139,489.215 72.5,486.5 Z"/></g>
<g><path style="opacity:0.996" fill="#02a1f8" d="M 286.5,486.5 C 283.455,489.547 280.122,492.213 276.5,494.5C 251.005,493.502 225.339,493.169 199.5,493.5C 199.5,490.833 199.5,488.167 199.5,485.5C 228.671,485.169 257.671,485.502 286.5,486.5 Z"/></g>
<g><path style="opacity:0.978" fill="#019ffb" d="M 81.5,493.5 C 107.5,493.5 133.5,493.5 159.5,493.5C 159.5,499.5 159.5,505.5 159.5,511.5C 148.167,511.5 136.833,511.5 125.5,511.5C 109.483,508.827 94.816,502.827 81.5,493.5 Z"/></g>
<g><path style="opacity:0.98" fill="#019ffb" d="M 199.5,493.5 C 225.339,493.169 251.005,493.502 276.5,494.5C 263.321,503.262 248.988,508.929 233.5,511.5C 222.167,511.5 210.833,511.5 199.5,511.5C 199.5,505.5 199.5,499.5 199.5,493.5 Z"/></g>
</svg>
