<?xml version="1.0" encoding="UTF-8"?>
<!DOCTYPE svg PUBLIC "-//W3C//DTD SVG 1.1//EN" "http://www.w3.org/Graphics/SVG/1.1/DTD/svg11.dtd">
<svg xmlns="http://www.w3.org/2000/svg" version="1.1" width="512px" height="512px" style="shape-rendering:geometricPrecision; text-rendering:geometricPrecision; image-rendering:optimizeQuality; fill-rule:evenodd; clip-rule:evenodd" xmlns:xlink="http://www.w3.org/1999/xlink">
<g><path style="opacity:0.991" fill="#28f29a" d="M 179.5,-0.5 C 189.833,-0.5 200.167,-0.5 210.5,-0.5C 226.286,1.87324 241.286,6.87324 255.5,14.5C 269.714,6.87324 284.714,1.87324 300.5,-0.5C 310.833,-0.5 321.167,-0.5 331.5,-0.5C 351.741,2.68906 370.075,10.3557 386.5,22.5C 299.167,22.5 211.833,22.5 124.5,22.5C 140.925,10.3557 159.259,2.68906 179.5,-0.5 Z"/></g>
<g><path style="opacity:0.993" fill="#27ef9e" d="M 124.5,22.5 C 211.833,22.5 299.167,22.5 386.5,22.5C 394.811,27.8114 401.811,34.478 407.5,42.5C 385.006,43.4975 362.339,43.8308 339.5,43.5C 322.842,38.6035 306.175,38.9368 289.5,44.5C 266.833,43.1667 244.167,43.1667 221.5,44.5C 204.499,38.8823 187.499,38.549 170.5,43.5C 147.994,43.8308 125.66,43.4974 103.5,42.5C 109.189,34.478 116.189,27.8114 124.5,22.5 Z"/></g>
<g><path style="opacity:0.986" fill="#26eca1" d="M 103.5,42.5 C 125.66,43.4974 147.994,43.8308 170.5,43.5C 162.913,46.9615 155.58,50.9615 148.5,55.5C 130.577,54.514 112.577,54.1807 94.5,54.5C 96.7376,49.9289 99.7376,45.9289 103.5,42.5 Z"/></g>
<g><path style="opacity:0.982" fill="#25eca2" d="M 221.5,44.5 C 244.167,43.1667 266.833,43.1667 289.5,44.5C 276.921,49.4577 265.587,56.4577 255.5,65.5C 245.446,56.4707 234.112,49.4707 221.5,44.5 Z"/></g>
<g><path style="opacity:0.991" fill="#26eca1" d="M 407.5,42.5 C 411.262,45.9289 414.262,49.9289 416.5,54.5C 398.423,54.1807 380.423,54.514 362.5,55.5C 355.208,50.6883 347.542,46.6883 339.5,43.5C 362.339,43.8308 385.006,43.4975 407.5,42.5 Z"/></g>
<g><path style="opacity:0.986" fill="#24e9a5" d="M 94.5,54.5 C 112.577,54.1807 130.577,54.514 148.5,55.5C 139.905,61.6753 132.905,69.342 127.5,78.5C 112.5,78.5 97.5,78.5 82.5,78.5C 84.9324,69.6351 88.9324,61.6351 94.5,54.5 Z"/></g>
<g><path style="opacity:0.989" fill="#24e9a5" d="M 416.5,54.5 C 422.068,61.6351 426.068,69.6351 428.5,78.5C 413.5,78.5 398.5,78.5 383.5,78.5C 378.095,69.342 371.095,61.6753 362.5,55.5C 380.423,54.514 398.423,54.1807 416.5,54.5 Z"/></g>
<g><path style="opacity:0.996" fill="#23e7a8" d="M 82.5,78.5 C 97.5,78.5 112.5,78.5 127.5,78.5C 146.662,79.3318 165.996,79.8318 185.5,80C 186.71,81.0391 187.71,82.2058 188.5,83.5C 152.427,83.8264 116.427,83.4931 80.5,82.5C 80.9887,81.0048 81.6554,79.6715 82.5,78.5 Z"/></g>
<g><path style="opacity:0.996" fill="#22e6a8" d="M 383.5,78.5 C 398.5,78.5 413.5,78.5 428.5,78.5C 429.738,80.2143 430.405,82.2143 430.5,84.5C 394.89,84.1752 359.557,83.1752 324.5,81.5C 324.611,80.8826 324.944,80.3826 325.5,80C 345.004,79.8318 364.338,79.3318 383.5,78.5 Z"/></g>
<g><path style="opacity:0.996" fill="#21e4ab" d="M 80.5,82.5 C 116.427,83.4931 152.427,83.8264 188.5,83.5C 198.833,93.1667 208.833,103.167 218.5,113.5C 170.155,114.162 122.155,113.495 74.5,111.5C 75.9892,101.72 77.9892,92.0536 80.5,82.5 Z"/></g>
<g><path style="opacity:0.995" fill="#21e4ab" d="M 324.5,81.5 C 359.557,83.1752 394.89,84.1752 430.5,84.5C 433.246,93.2163 435.246,102.216 436.5,111.5C 413.009,112.833 389.176,113.5 365,113.5C 340.998,113.5 317.164,113.167 293.5,112.5C 303.5,101.833 313.833,91.5 324.5,81.5 Z"/></g>
<g><path style="opacity:0.997" fill="#20e0af" d="M 74.5,111.5 C 122.155,113.495 170.155,114.162 218.5,113.5C 220.63,115.127 222.63,116.96 224.5,119C 245.167,119.667 265.833,119.667 286.5,119C 288.703,116.628 291.037,114.461 293.5,112.5C 317.164,113.167 340.998,113.5 365,113.5C 389.176,113.5 413.009,112.833 436.5,111.5C 437.531,113.961 438.198,116.627 438.5,119.5C 407.165,119.333 375.832,119.5 344.5,120C 341.631,123.038 338.631,125.871 335.5,128.5C 282.069,127.17 228.736,127.17 175.5,128.5C 172.369,125.871 169.369,123.038 166.5,120C 135.168,119.5 103.835,119.333 72.5,119.5C 72.8023,116.627 73.469,113.961 74.5,111.5 Z"/></g>
<g><path style="opacity:0.997" fill="#1eddb3" d="M 335.5,128.5 C 328.5,136.167 321.167,143.5 313.5,150.5C 274.736,149.171 236.069,149.171 197.5,150.5C 189.833,143.5 182.5,136.167 175.5,128.5C 228.736,127.17 282.069,127.17 335.5,128.5 Z"/></g>
<g><path style="opacity:0.995" fill="#1ddab6" d="M 313.5,150.5 C 311.038,153.464 308.371,156.297 305.5,159C 272.167,159.667 238.833,159.667 205.5,159C 202.629,156.297 199.962,153.464 197.5,150.5C 236.069,149.171 274.736,149.171 313.5,150.5 Z"/></g>
<g><path style="opacity:0.992" fill="#1cd8ba" d="M 170.5,178.5 C 139.338,179.498 108.004,179.832 76.5,179.5C 77.5758,173.121 78.9091,166.788 80.5,160.5C 104.493,159.334 128.493,159.167 152.5,160C 158.703,166.035 164.703,172.202 170.5,178.5 Z"/></g>
<g><path style="opacity:0.992" fill="#1cd8ba" d="M 434.5,178.5 C 403.069,179.828 371.736,179.828 340.5,178.5C 346.297,172.202 352.297,166.035 358.5,160C 382.507,159.167 406.507,159.334 430.5,160.5C 431.967,166.503 433.3,172.503 434.5,178.5 Z"/></g>
<g><path style="opacity:0.992" fill="#1ad5bd" d="M 170.5,178.5 C 174.5,181.833 178.167,185.5 181.5,189.5C 146.337,190.498 111.004,190.832 75.5,190.5C 75.7244,186.821 76.0578,183.154 76.5,179.5C 108.004,179.832 139.338,179.498 170.5,178.5 Z"/></g>
<g><path style="opacity:0.993" fill="#1ad5bd" d="M 340.5,178.5 C 371.736,179.828 403.069,179.828 434.5,178.5C 434.927,182.824 435.261,187.158 435.5,191.5C 400.069,190.84 364.736,190.173 329.5,189.5C 332.833,185.5 336.5,181.833 340.5,178.5 Z"/></g>
<g><path style="opacity:0.995" fill="#19d2c0" d="M 181.5,189.5 C 184.964,192.462 188.297,195.629 191.5,199C 234.167,199.667 276.833,199.667 319.5,199C 322.703,195.629 326.036,192.462 329.5,189.5C 364.736,190.173 400.069,190.84 435.5,191.5C 435.5,197.5 435.5,203.5 435.5,209.5C 421.754,209.815 408.088,209.481 394.5,208.5C 394.5,205.5 394.5,202.5 394.5,199.5C 388.824,199.334 383.157,199.501 377.5,200C 374.631,203.038 371.631,205.871 368.5,208.5C 293.706,209.161 219.039,209.827 144.5,210.5C 140.702,207.204 137.036,203.704 133.5,200C 127.843,199.501 122.176,199.334 116.5,199.5C 116.5,202.833 116.5,206.167 116.5,209.5C 102.833,209.5 89.1667,209.5 75.5,209.5C 75.5,203.167 75.5,196.833 75.5,190.5C 111.004,190.832 146.337,190.498 181.5,189.5 Z"/></g>
<g><path style="opacity:0.989" fill="#18cfc3" d="M 75.5,209.5 C 89.1667,209.5 102.833,209.5 116.5,209.5C 116.687,214.845 117.02,220.178 117.5,225.5C 104.01,226.496 90.3435,226.829 76.5,226.5C 75.8658,220.855 75.5324,215.189 75.5,209.5 Z"/></g>
<g><path style="opacity:0.999" fill="#18cfc3" d="M 368.5,208.5 C 362.167,215.5 355.5,222.167 348.5,228.5C 317.841,227.167 286.841,226.5 255.5,226.5C 224.096,226.504 192.763,226.837 161.5,227.5C 155.5,222.167 149.833,216.5 144.5,210.5C 219.039,209.827 293.706,209.161 368.5,208.5 Z"/></g>
<g><path style="opacity:0.99" fill="#18cfc3" d="M 394.5,208.5 C 408.088,209.481 421.754,209.815 435.5,209.5C 435.468,215.189 435.134,220.855 434.5,226.5C 420.421,226.185 406.421,226.518 392.5,227.5C 393.891,221.261 394.557,214.928 394.5,208.5 Z"/></g>
<g><path style="opacity:0.982" fill="#16cdc6" d="M 117.5,225.5 C 118.806,230.723 120.139,236.056 121.5,241.5C 107.579,240.518 93.5787,240.185 79.5,240.5C 78.0848,236.042 77.0848,231.375 76.5,226.5C 90.3435,226.829 104.01,226.496 117.5,225.5 Z"/></g>
<g><path style="opacity:0.999" fill="#16cdc5" d="M 348.5,228.5 C 345.371,232.131 342.037,235.631 338.5,239C 283.167,239.667 227.833,239.667 172.5,239C 168.63,235.298 164.963,231.464 161.5,227.5C 192.763,226.837 224.096,226.504 255.5,226.5C 286.841,226.5 317.841,227.167 348.5,228.5 Z"/></g>
<g><path style="opacity:0.984" fill="#16cdc6" d="M 434.5,226.5 C 433.915,231.375 432.915,236.042 431.5,240.5C 417.5,240.5 403.5,240.5 389.5,240.5C 390.967,236.298 391.967,231.965 392.5,227.5C 406.421,226.518 420.421,226.185 434.5,226.5 Z"/></g>
<g><path style="opacity:0.983" fill="#15c9ca" d="M 79.5,240.5 C 93.5787,240.185 107.579,240.518 121.5,241.5C 124.554,249.942 127.887,258.275 131.5,266.5C 116.971,266.839 102.638,267.839 88.5,269.5C 84.1215,260.358 81.1215,250.692 79.5,240.5 Z"/></g>
<g><path style="opacity:0.983" fill="#15c9ca" d="M 389.5,240.5 C 403.5,240.5 417.5,240.5 431.5,240.5C 430.212,249.69 427.545,258.357 423.5,266.5C 408.578,267.483 393.578,267.816 378.5,267.5C 382.993,258.845 386.66,249.845 389.5,240.5 Z"/></g>
<g><path style="opacity:0.99" fill="#13c5ce" d="M 131.5,266.5 C 135.072,272.641 138.405,278.974 141.5,285.5C 126.324,285.171 111.324,285.504 96.5,286.5C 93.0772,281.253 90.4106,275.587 88.5,269.5C 102.638,267.839 116.971,266.839 131.5,266.5 Z"/></g>
<g><path style="opacity:0.986" fill="#13c5cf" d="M 423.5,266.5 C 421.225,272.989 418.558,279.323 415.5,285.5C 400.258,286.125 385.258,285.459 370.5,283.5C 373.167,278.167 375.833,272.833 378.5,267.5C 393.578,267.816 408.578,267.483 423.5,266.5 Z"/></g>
<g><path style="opacity:0.989" fill="#11c2d2" d="M 370.5,283.5 C 385.258,285.459 400.258,286.125 415.5,285.5C 411.527,293.11 407.86,300.777 404.5,308.5C 390.873,306.518 376.873,305.851 362.5,306.5C 364.372,298.551 367.039,290.884 370.5,283.5 Z"/></g>
<g><path style="opacity:0.985" fill="#11c2d2" d="M 141.5,285.5 C 144.43,292.29 146.763,299.29 148.5,306.5C 134.167,306.5 119.833,306.5 105.5,306.5C 102.502,299.838 99.5025,293.171 96.5,286.5C 111.324,285.504 126.324,285.171 141.5,285.5 Z"/></g>
<g><path style="opacity:0.985" fill="#0fbdd8" d="M 105.5,306.5 C 119.833,306.5 134.167,306.5 148.5,306.5C 151.887,316.102 153.887,326.102 154.5,336.5C 117.663,336.832 80.9962,336.498 44.5,335.5C 64.1373,322.566 85.8039,317.233 109.5,319.5C 108.567,315.035 107.234,310.702 105.5,306.5 Z"/></g>
<g><path style="opacity:0.985" fill="#0fbdd8" d="M 362.5,306.5 C 376.873,305.851 390.873,306.518 404.5,308.5C 403.297,312.11 402.297,315.777 401.5,319.5C 425.196,317.233 446.863,322.566 466.5,335.5C 430.004,336.498 393.337,336.832 356.5,336.5C 357.113,326.102 359.113,316.102 362.5,306.5 Z"/></g>
<g><path style="opacity:0.97" fill="#0ebdd9" d="M 298.5,337.5 C 269.833,337.5 241.167,337.5 212.5,337.5C 227.329,322.448 245.329,316.615 266.5,320C 279.134,322.479 289.801,328.312 298.5,337.5 Z"/></g>
<g><path style="opacity:0.995" fill="#0db9dc" d="M 44.5,335.5 C 80.9962,336.498 117.663,336.832 154.5,336.5C 155.434,344.111 155.767,351.778 155.5,359.5C 142.167,359.5 128.833,359.5 115.5,359.5C 107.479,359.442 99.4792,359.776 91.5,360.5C 67.5978,359.824 43.5978,359.157 19.5,358.5C 26.2549,349.077 34.5883,341.41 44.5,335.5 Z"/></g>
<g><path style="opacity:0.993" fill="#0db9dd" d="M 212.5,337.5 C 241.167,337.5 269.833,337.5 298.5,337.5C 305.161,343.47 309.827,350.803 312.5,359.5C 293.659,359.17 274.993,359.503 256.5,360.5C 255.833,360.5 255.167,360.5 254.5,360.5C 235.977,360.163 217.644,359.163 199.5,357.5C 201.845,349.46 206.179,342.793 212.5,337.5 Z"/></g>
<g><path style="opacity:0.995" fill="#0db9dc" d="M 466.5,335.5 C 476.807,341.474 485.14,349.474 491.5,359.5C 465.167,359.5 438.833,359.5 412.5,359.5C 406.833,359.5 401.167,359.5 395.5,359.5C 382.167,359.5 368.833,359.5 355.5,359.5C 355.201,351.747 355.534,344.08 356.5,336.5C 393.337,336.832 430.004,336.498 466.5,335.5 Z"/></g>
<g><path style="opacity:0.981" fill="#0cb6e0" d="M 19.5,358.5 C 43.5978,359.157 67.5978,359.824 91.5,360.5C 79.7543,362.209 69.4209,366.876 60.5,374.5C 43.9314,373.82 27.2647,373.153 10.5,372.5C 13.0013,367.494 16.0013,362.827 19.5,358.5 Z"/></g>
<g><path style="opacity:0.981" fill="#0bb6e0" d="M 199.5,357.5 C 217.644,359.163 235.977,360.163 254.5,360.5C 245.675,361 239.675,365.333 236.5,373.5C 222.833,373.5 209.167,373.5 195.5,373.5C 195.707,367.775 197.04,362.441 199.5,357.5 Z"/></g>
<g><path style="opacity:0.983" fill="#0bb6e0" d="M 256.5,360.5 C 274.993,359.503 293.659,359.17 312.5,359.5C 313.967,363.702 314.967,368.035 315.5,372.5C 301.912,373.481 288.246,373.815 274.5,373.5C 271.325,365.333 265.325,361 256.5,360.5 Z"/></g>
<g><path style="opacity:0.977" fill="#0cb6e0" d="M 412.5,359.5 C 438.833,359.5 465.167,359.5 491.5,359.5C 495.494,363.479 498.494,368.145 500.5,373.5C 483.5,373.5 466.5,373.5 449.5,373.5C 438.456,365.265 426.122,360.599 412.5,359.5 Z"/></g>
<g><path style="opacity:1" fill="#0bb6e0" d="M 115.5,359.5 C 128.833,359.5 142.167,359.5 155.5,359.5C 155.5,364.167 155.5,368.833 155.5,373.5C 142.167,373.5 128.833,373.5 115.5,373.5C 115.5,368.833 115.5,364.167 115.5,359.5 Z"/></g>
<g><path style="opacity:1" fill="#0bb6e0" d="M 355.5,359.5 C 368.833,359.5 382.167,359.5 395.5,359.5C 395.5,364.167 395.5,368.833 395.5,373.5C 382.167,373.5 368.833,373.5 355.5,373.5C 355.5,368.833 355.5,364.167 355.5,359.5 Z"/></g>
<g><path style="opacity:0.987" fill="#0ab3e4" d="M 10.5,372.5 C 27.2647,373.153 43.9314,373.82 60.5,374.5C 51.9816,382.201 45.9816,391.534 42.5,402.5C 28.5,402.5 14.5,402.5 0.5,402.5C 2.03989,391.88 5.37322,381.88 10.5,372.5 Z"/></g>
<g><path style="opacity:0.986" fill="#0ab2e4" d="M 315.5,372.5 C 314.571,391.074 323.238,399.574 341.5,398C 351.69,393.134 356.356,384.967 355.5,373.5C 368.833,373.5 382.167,373.5 395.5,373.5C 396.346,383.521 395.013,393.188 391.5,402.5C 354.33,402.168 317.33,402.502 280.5,403.5C 278.251,399.544 276.751,395.211 276,390.5C 275.469,384.829 274.969,379.162 274.5,373.5C 288.246,373.815 301.912,373.481 315.5,372.5 Z"/></g>
<g><path style="opacity:0.986" fill="#0ab2e4" d="M 115.5,373.5 C 128.833,373.5 142.167,373.5 155.5,373.5C 155.058,391.562 163.724,399.729 181.5,398C 191.69,393.134 196.356,384.967 195.5,373.5C 209.167,373.5 222.833,373.5 236.5,373.5C 236.444,383.489 234.777,393.156 231.5,402.5C 194.33,402.168 157.33,402.502 120.5,403.5C 118.251,399.544 116.751,395.211 116,390.5C 115.501,384.843 115.334,379.176 115.5,373.5 Z"/></g>
<g><path style="opacity:0.984" fill="#0ab3e4" d="M 449.5,373.5 C 466.5,373.5 483.5,373.5 500.5,373.5C 505.483,382.155 508.817,391.489 510.5,401.5C 496.579,402.482 482.579,402.815 468.5,402.5C 464.927,391.019 458.593,381.352 449.5,373.5 Z"/></g>
<g><path style="opacity:0.982" fill="#08afe8" d="M 510.5,401.5 C 510.232,403.099 510.566,404.432 511.5,405.5C 511.5,408.833 511.5,412.167 511.5,415.5C 498.246,414.519 484.913,414.186 471.5,414.5C 471.768,416.099 471.434,417.432 470.5,418.5C 470.635,413.05 469.969,407.716 468.5,402.5C 482.579,402.815 496.579,402.482 510.5,401.5 Z"/></g>
<g><path style="opacity:0.984" fill="#08afe8" d="M 0.5,402.5 C 14.5,402.5 28.5,402.5 42.5,402.5C 41.0897,406.705 40.423,411.038 40.5,415.5C 26.9123,414.519 13.2456,414.185 -0.5,414.5C -0.5,411.5 -0.5,408.5 -0.5,405.5C 0.403972,404.791 0.737305,403.791 0.5,402.5 Z"/></g>
<g><path style="opacity:0.992" fill="#08afe8" d="M 231.5,402.5 C 229.656,406.864 227.323,410.864 224.5,414.5C 191.833,414.5 159.167,414.5 126.5,414.5C 123.742,411.322 121.742,407.655 120.5,403.5C 157.33,402.502 194.33,402.168 231.5,402.5 Z"/></g>
<g><path style="opacity:0.992" fill="#08afe8" d="M 391.5,402.5 C 389.656,406.864 387.323,410.864 384.5,414.5C 351.833,414.5 319.167,414.5 286.5,414.5C 283.742,411.322 281.742,407.655 280.5,403.5C 317.33,402.502 354.33,402.168 391.5,402.5 Z"/></g>
<g><path style="opacity:0.998" fill="#07aceb" d="M -0.5,414.5 C 13.2456,414.185 26.9123,414.519 40.5,415.5C 39.7081,421.13 39.3748,426.797 39.5,432.5C 26.1667,432.5 12.8333,432.5 -0.5,432.5C -0.5,426.5 -0.5,420.5 -0.5,414.5 Z"/></g>
<g><path style="opacity:0.986" fill="#07aceb" d="M 126.5,414.5 C 159.167,414.5 191.833,414.5 224.5,414.5C 212.464,431.019 196.13,439.352 175.5,439.5C 154.87,439.352 138.536,431.019 126.5,414.5 Z"/></g>
<g><path style="opacity:0.986" fill="#07aceb" d="M 286.5,414.5 C 319.167,414.5 351.833,414.5 384.5,414.5C 372.464,431.019 356.13,439.352 335.5,439.5C 314.87,439.352 298.536,431.019 286.5,414.5 Z"/></g>
<g><path style="opacity:1" fill="#07aceb" d="M 511.5,415.5 C 511.5,421.167 511.5,426.833 511.5,432.5C 498.167,432.5 484.833,432.5 471.5,432.5C 471.774,427.737 471.441,423.07 470.5,418.5C 471.434,417.432 471.768,416.099 471.5,414.5C 484.913,414.186 498.246,414.519 511.5,415.5 Z"/></g>
<g><path style="opacity:1" fill="#05a9ef" d="M -0.5,432.5 C 12.8333,432.5 26.1667,432.5 39.5,432.5C 39.5,438.167 39.5,443.833 39.5,449.5C 26.1667,449.5 12.8333,449.5 -0.5,449.5C -0.5,443.833 -0.5,438.167 -0.5,432.5 Z"/></g>
<g><path style="opacity:1" fill="#05a9ef" d="M 471.5,432.5 C 484.833,432.5 498.167,432.5 511.5,432.5C 511.5,438.167 511.5,443.833 511.5,449.5C 498.167,449.5 484.833,449.5 471.5,449.5C 471.5,443.833 471.5,438.167 471.5,432.5 Z"/></g>
<g><path style="opacity:1" fill="#04a7f2" d="M -0.5,449.5 C 12.8333,449.5 26.1667,449.5 39.5,449.5C 39.5,454.167 39.5,458.833 39.5,463.5C 26.1667,463.5 12.8333,463.5 -0.5,463.5C -0.5,458.833 -0.5,454.167 -0.5,449.5 Z"/></g>
<g><path style="opacity:1" fill="#04a7f2" d="M 471.5,449.5 C 484.833,449.5 498.167,449.5 511.5,449.5C 511.5,454.167 511.5,458.833 511.5,463.5C 498.167,463.5 484.833,463.5 471.5,463.5C 471.5,458.833 471.5,454.167 471.5,449.5 Z"/></g>
<g><path style="opacity:1" fill="#02a3f6" d="M -0.5,463.5 C 12.8333,463.5 26.1667,463.5 39.5,463.5C 39.5,466.167 39.5,468.833 39.5,471.5C 183.5,471.5 327.5,471.5 471.5,471.5C 471.5,468.833 471.5,466.167 471.5,463.5C 484.833,463.5 498.167,463.5 511.5,463.5C 511.5,470.833 511.5,478.167 511.5,485.5C 340.833,485.5 170.167,485.5 -0.5,485.5C -0.5,478.167 -0.5,470.833 -0.5,463.5 Z"/></g>
<g><path style="opacity:1" fill="#02a1f8" d="M -0.5,485.5 C 170.167,485.5 340.833,485.5 511.5,485.5C 511.5,488.167 511.5,490.833 511.5,493.5C 340.833,493.5 170.167,493.5 -0.5,493.5C -0.5,490.833 -0.5,488.167 -0.5,485.5 Z"/></g>
<g><path style="opacity:1" fill="#009ffb" d="M -0.5,493.5 C 170.167,493.5 340.833,493.5 511.5,493.5C 511.5,499.5 511.5,505.5 511.5,511.5C 340.833,511.5 170.167,511.5 -0.5,511.5C -0.5,505.5 -0.5,499.5 -0.5,493.5 Z"/></g>
</svg>
