<?xml version="1.0" encoding="UTF-8"?>
<!DOCTYPE svg PUBLIC "-//W3C//DTD SVG 1.1//EN" "http://www.w3.org/Graphics/SVG/1.1/DTD/svg11.dtd">
<svg xmlns="http://www.w3.org/2000/svg" version="1.1" width="512px" height="512px" style="shape-rendering:geometricPrecision; text-rendering:geometricPrecision; image-rendering:optimizeQuality; fill-rule:evenodd; clip-rule:evenodd" xmlns:xlink="http://www.w3.org/1999/xlink">
<g><path style="opacity:0.968" fill="#28f29b" d="M 382.5,-0.5 C 383.5,-0.5 384.5,-0.5 385.5,-0.5C 392.833,7.16667 400.167,14.8333 407.5,22.5C 391.833,22.5 376.167,22.5 360.5,22.5C 367.833,14.8333 375.167,7.16667 382.5,-0.5 Z"/></g>
<g><path style="opacity:0.988" fill="#27ef9f" d="M 360.5,22.5 C 376.167,22.5 391.833,22.5 407.5,22.5C 414.5,28.8333 421.167,35.5 427.5,42.5C 398.67,43.3323 369.67,43.8323 340.5,44C 338.559,46.4536 336.225,48.287 333.5,49.5C 342.167,40.1667 351.167,31.1667 360.5,22.5 Z"/></g>
<g><path style="opacity:0.999" fill="#26eca1" d="M 427.5,42.5 C 431.833,46.1667 435.833,50.1667 439.5,54.5C 402.5,54.5 365.5,54.5 328.5,54.5C 329.833,52.5 331.5,50.8333 333.5,49.5C 336.225,48.287 338.559,46.4536 340.5,44C 369.67,43.8323 398.67,43.3323 427.5,42.5 Z"/></g>
<g><path style="opacity:0.982" fill="#24e9a5" d="M 328.5,54.5 C 365.5,54.5 402.5,54.5 439.5,54.5C 449.167,63.5 458.5,72.8333 467.5,82.5C 449.007,83.4969 430.341,83.8302 411.5,83.5C 402.521,74.8547 393.521,66.1881 384.5,57.5C 374.757,66.2407 365.757,75.574 357.5,85.5C 338.56,83.8589 319.56,82.8589 300.5,82.5C 309.5,72.8333 318.833,63.5 328.5,54.5 Z"/></g>
<g><path style="opacity:0.989" fill="#21e3ab" d="M 300.5,82.5 C 319.56,82.8589 338.56,83.8589 357.5,85.5C 366.465,93.9644 375.298,102.631 384,111.5C 393.369,102.298 402.536,92.965 411.5,83.5C 430.341,83.8302 449.007,83.4969 467.5,82.5C 477.62,90.9488 486.287,100.615 493.5,111.5C 476.532,113.486 459.199,114.153 441.5,113.5C 441.167,113.5 440.833,113.5 440.5,113.5C 403.33,113.168 366.33,113.502 329.5,114.5C 328.5,113.167 327.5,113.167 326.5,114.5C 307.833,113.833 289.167,113.167 270.5,112.5C 280.167,102.167 290.167,92.1667 300.5,82.5 Z"/></g>
<g><path style="opacity:0.997" fill="#20e0af" d="M 440.5,113.5 C 435.833,118.833 430.833,123.833 425.5,128.5C 398.069,127.172 370.736,127.172 343.5,128.5C 338.5,124.167 333.833,119.5 329.5,114.5C 366.33,113.502 403.33,113.168 440.5,113.5 Z"/></g>
<g><path style="opacity:0.994" fill="#20dfb0" d="M 270.5,112.5 C 289.167,113.167 307.833,113.833 326.5,114.5C 322.5,119.167 318.167,123.5 313.5,127.5C 294.326,127.83 275.326,127.497 256.5,126.5C 260.833,121.5 265.5,116.833 270.5,112.5 Z"/></g>
<g><path style="opacity:0.977" fill="#20e0b0" d="M 493.5,111.5 C 496.464,116.382 498.464,121.715 499.5,127.5C 484.99,127.171 470.657,127.504 456.5,128.5C 451.167,123.833 446.167,118.833 441.5,113.5C 459.199,114.153 476.532,113.486 493.5,111.5 Z"/></g>
<g><path style="opacity:0.989" fill="#1eddb3" d="M 256.5,126.5 C 275.326,127.497 294.326,127.83 313.5,127.5C 309.37,132.131 305.037,136.631 300.5,141C 303.039,143.37 305.372,145.87 307.5,148.5C 289.007,149.497 270.341,149.83 251.5,149.5C 248.188,146.854 245.188,143.854 242.5,140.5C 246.854,135.479 251.521,130.812 256.5,126.5 Z"/></g>
<g><path style="opacity:0.992" fill="#1eddb3" d="M 425.5,128.5 C 416.5,138.167 407.167,147.5 397.5,156.5C 378.931,155.821 360.265,155.155 341.5,154.5C 345.812,149.854 350.145,145.187 354.5,140.5C 350.811,136.48 347.145,132.48 343.5,128.5C 370.736,127.172 398.069,127.172 425.5,128.5 Z"/></g>
<g><path style="opacity:0.987" fill="#1eddb3" d="M 499.5,127.5 C 502.112,136.802 502.112,146.135 499.5,155.5C 484.5,155.5 469.5,155.5 454.5,155.5C 457.853,151.116 459.853,146.116 460.5,140.5C 459.748,136.244 458.415,132.244 456.5,128.5C 470.657,127.504 484.99,127.171 499.5,127.5 Z"/></g>
<g><path style="opacity:0.988" fill="#1cd8b8" d="M 307.5,148.5 C 314.146,154.812 320.813,161.145 327.5,167.5C 332.187,163.145 336.854,158.812 341.5,154.5C 360.265,155.155 378.931,155.821 397.5,156.5C 390.167,164.5 382.5,172.167 374.5,179.5C 343.662,179.169 312.995,179.502 282.5,180.5C 271.833,170.5 261.5,160.167 251.5,149.5C 270.341,149.83 289.007,149.497 307.5,148.5 Z"/></g>
<g><path style="opacity:0.986" fill="#1cd8b9" d="M 454.5,155.5 C 469.5,155.5 484.5,155.5 499.5,155.5C 497.079,164.341 493.079,172.341 487.5,179.5C 468.5,179.5 449.5,179.5 430.5,179.5C 438.167,171.167 446.167,163.167 454.5,155.5 Z"/></g>
<g><path style="opacity:0.997" fill="#1ad5bc" d="M 374.5,179.5 C 370.833,183.833 366.833,187.833 362.5,191.5C 339.339,190.502 316.006,190.169 292.5,190.5C 288.833,187.5 285.5,184.167 282.5,180.5C 312.995,179.502 343.662,179.169 374.5,179.5 Z"/></g>
<g><path style="opacity:0.988" fill="#1ad5bc" d="M 430.5,179.5 C 449.5,179.5 468.5,179.5 487.5,179.5C 484.167,183.5 480.5,187.167 476.5,190.5C 457.5,190.5 438.5,190.5 419.5,190.5C 422.833,186.5 426.5,182.833 430.5,179.5 Z"/></g>
<g><path style="opacity:0.99" fill="#19d3bf" d="M 292.5,190.5 C 316.006,190.169 339.339,190.502 362.5,191.5C 356.5,198.167 350.167,204.5 343.5,210.5C 324.833,209.833 306.167,209.167 287.5,208.5C 290.963,204.536 294.63,200.702 298.5,197C 296.294,194.963 294.294,192.797 292.5,190.5 Z"/></g>
<g><path style="opacity:0.99" fill="#19d2bf" d="M 419.5,190.5 C 438.5,190.5 457.5,190.5 476.5,190.5C 472.167,195.5 467.5,200.167 462.5,204.5C 460.114,205.373 458.114,206.873 456.5,209C 437.836,209.5 419.17,209.667 400.5,209.5C 406.5,202.833 412.833,196.5 419.5,190.5 Z"/></g>
<g><path style="opacity:0.991" fill="#17d0c4" d="M 287.5,208.5 C 306.167,209.167 324.833,209.833 343.5,210.5C 338.5,216.167 333.167,221.5 327.5,226.5C 308.167,226.5 288.833,226.5 269.5,226.5C 275.167,220.167 281.167,214.167 287.5,208.5 Z"/></g>
<g><path style="opacity:0.997" fill="#18cfc3" d="M 462.5,204.5 C 455.167,212.5 447.5,220.167 439.5,227.5C 421.007,226.503 402.341,226.17 383.5,226.5C 388.833,220.5 394.5,214.833 400.5,209.5C 419.17,209.667 437.836,209.5 456.5,209C 458.114,206.873 460.114,205.373 462.5,204.5 Z"/></g>
<g><path style="opacity:0.991" fill="#16cec7" d="M 269.5,226.5 C 288.833,226.5 308.167,226.5 327.5,226.5C 323.167,231.5 318.5,236.167 313.5,240.5C 294.497,240.333 275.497,240.5 256.5,241C 254.886,243.127 252.886,244.627 250.5,245.5C 256.5,238.833 262.833,232.5 269.5,226.5 Z"/></g>
<g><path style="opacity:0.99" fill="#16cdc6" d="M 383.5,226.5 C 402.341,226.17 421.007,226.503 439.5,227.5C 435.5,232.167 431.167,236.5 426.5,240.5C 407.5,240.5 388.5,240.5 369.5,240.5C 373.833,235.5 378.5,230.833 383.5,226.5 Z"/></g>
<g><path style="opacity:0.986" fill="#14c9ca" d="M 313.5,240.5 C 304.5,250.167 295.167,259.5 285.5,268.5C 238.67,267.501 191.67,267.168 144.5,267.5C 149.63,261.869 154.964,256.369 160.5,251C 188.833,250.667 217.167,250.333 245.5,250C 247.037,248.293 248.704,246.793 250.5,245.5C 252.886,244.627 254.886,243.127 256.5,241C 275.497,240.5 294.497,240.333 313.5,240.5 Z"/></g>
<g><path style="opacity:0.976" fill="#15c9ca" d="M 369.5,240.5 C 388.5,240.5 407.5,240.5 426.5,240.5C 417.833,249.833 408.833,258.833 399.5,267.5C 380.5,267.5 361.5,267.5 342.5,267.5C 351.167,258.167 360.167,249.167 369.5,240.5 Z"/></g>
<g><path style="opacity:0.996" fill="#13c6cd" d="M 144.5,267.5 C 191.67,267.168 238.67,267.501 285.5,268.5C 283.167,271.5 280.5,274.167 277.5,276.5C 230.67,275.501 183.67,275.168 136.5,275.5C 138.833,272.5 141.5,269.833 144.5,267.5 Z"/></g>
<g><path style="opacity:0.999" fill="#13c5cf" d="M 136.5,275.5 C 183.67,275.168 230.67,275.501 277.5,276.5C 274.833,279.833 271.833,282.833 268.5,285.5C 221.33,285.832 174.33,285.499 127.5,284.5C 130.167,281.167 133.167,278.167 136.5,275.5 Z"/></g>
<g><path style="opacity:0.99" fill="#13c5ce" d="M 342.5,267.5 C 361.5,267.5 380.5,267.5 399.5,267.5C 393.833,273.833 387.833,279.833 381.5,285.5C 362.5,285.5 343.5,285.5 324.5,285.5C 330.167,279.167 336.167,273.167 342.5,267.5 Z"/></g>
<g><path style="opacity:0.992" fill="#11c2d2" d="M 127.5,284.5 C 174.33,285.499 221.33,285.832 268.5,285.5C 267.375,287.129 266.041,288.629 264.5,290C 235.833,290.333 207.167,290.667 178.5,291C 173.298,296.37 167.965,301.536 162.5,306.5C 143.806,306.477 124.806,306.477 105.5,306.5C 112.5,298.833 119.833,291.5 127.5,284.5 Z"/></g>
<g><path style="opacity:0.996" fill="#11c2d2" d="M 324.5,285.5 C 343.5,285.5 362.5,285.5 381.5,285.5C 374.167,293.5 366.5,301.167 358.5,308.5C 357.262,308.19 357.262,307.69 358.5,307C 340.17,306.5 321.836,306.333 303.5,306.5C 310.167,299.167 317.167,292.167 324.5,285.5 Z"/></g>
<g><path style="opacity:0.982" fill="#0fbed7" d="M 162.5,306.5 C 152.833,316.833 142.833,326.833 132.5,336.5C 113.659,336.83 94.9925,336.497 76.5,335.5C 85.8333,325.5 95.5,315.833 105.5,306.5C 124.806,306.477 143.806,306.477 162.5,306.5 Z"/></g>
<g><path style="opacity:0.985" fill="#0fbed7" d="M 303.5,306.5 C 321.836,306.333 340.17,306.5 358.5,307C 357.262,307.69 357.262,308.19 358.5,308.5C 349.5,318.167 340.167,327.5 330.5,336.5C 283.167,336.5 235.833,336.5 188.5,336.5C 190.294,334.203 192.294,332.037 194.5,330C 223.167,329.667 251.833,329.333 280.5,329C 288.035,321.298 295.702,313.798 303.5,306.5 Z"/></g>
<g><path style="opacity:0.988" fill="#0db9dc" d="M 76.5,335.5 C 94.9925,336.497 113.659,336.83 132.5,336.5C 125.167,344.5 117.5,352.167 109.5,359.5C 90.5,359.5 71.5,359.5 52.5,359.5C 60.1667,351.167 68.1667,343.167 76.5,335.5 Z"/></g>
<g><path style="opacity:0.992" fill="#0db9dc" d="M 188.5,336.5 C 235.833,336.5 283.167,336.5 330.5,336.5C 320.167,347.5 309.5,358.167 298.5,368.5C 300.22,365.269 302.553,362.436 305.5,360C 258.998,359.833 212.665,359.333 166.5,358.5C 173.5,350.833 180.833,343.5 188.5,336.5 Z"/></g>
<g><path style="opacity:0.995" fill="#0bb6e0" d="M 166.5,358.5 C 212.665,359.333 258.998,359.833 305.5,360C 302.553,362.436 300.22,365.269 298.5,368.5C 298.389,369.117 298.056,369.617 297.5,370C 268.833,370.333 240.167,370.667 211.5,371C 210.627,372.045 209.627,372.878 208.5,373.5C 189.5,373.5 170.5,373.5 151.5,373.5C 156.167,368.167 161.167,363.167 166.5,358.5 Z"/></g>
<g><path style="opacity:0.989" fill="#0bb6e0" d="M 52.5,359.5 C 71.5,359.5 90.5,359.5 109.5,359.5C 105.167,364.5 100.5,369.167 95.5,373.5C 76.5,373.5 57.5,373.5 38.5,373.5C 42.8333,368.5 47.5,363.833 52.5,359.5 Z"/></g>
<g><path style="opacity:0.98" fill="#0ab2e4" d="M 38.5,373.5 C 57.5,373.5 76.5,373.5 95.5,373.5C 86.1667,383.5 76.5,393.167 66.5,402.5C 49.3251,402.83 32.3251,402.497 15.5,401.5C 17.0068,397.155 19.1735,393.155 22,389.5C 27.3686,383.964 32.8686,378.63 38.5,373.5 Z"/></g>
<g><path style="opacity:0.976" fill="#0ab2e4" d="M 151.5,373.5 C 170.5,373.5 189.5,373.5 208.5,373.5C 198.833,383.833 188.833,393.833 178.5,403.5C 160.167,402.833 141.833,402.167 123.5,401.5C 132.5,391.833 141.833,382.5 151.5,373.5 Z"/></g>
<g><path style="opacity:0.983" fill="#08afe8" d="M 123.5,401.5 C 141.833,402.167 160.167,402.833 178.5,403.5C 174.833,407.833 170.833,411.833 166.5,415.5C 148.167,414.833 129.833,414.167 111.5,413.5C 115.167,409.167 119.167,405.167 123.5,401.5 Z"/></g>
<g><path style="opacity:0.984" fill="#08afe8" d="M 15.5,401.5 C 32.3251,402.497 49.3251,402.83 66.5,402.5C 62.5,406.833 58.5,411.167 54.5,415.5C 40.2452,414.518 25.9118,414.184 11.5,414.5C 11.7689,409.736 13.1022,405.403 15.5,401.5 Z"/></g>
<g><path style="opacity:0.983" fill="#07aceb" d="M 111.5,413.5 C 129.833,414.167 148.167,414.833 166.5,415.5C 161.167,421.5 155.5,427.167 149.5,432.5C 130.5,432.5 111.5,432.5 92.5,432.5C 98.5,425.833 104.833,419.5 111.5,413.5 Z"/></g>
<g><path style="opacity:0.989" fill="#07aceb" d="M 11.5,414.5 C 25.9118,414.184 40.2452,414.518 54.5,415.5C 51.6249,419.658 50.2915,424.325 50.5,429.5C 50.5,430.5 50.5,431.5 50.5,432.5C 37.1667,432.5 23.8333,432.5 10.5,432.5C 9.17148,426.434 9.50482,420.434 11.5,414.5 Z"/></g>
<g><path style="opacity:0.988" fill="#05aaef" d="M 50.5,429.5 C 51.3554,432.175 52.522,434.842 54,437.5C 57.7039,441.036 61.2039,444.702 64.5,448.5C 47.9314,449.18 31.2647,449.847 14.5,450.5C 11.9091,444.801 10.5758,438.801 10.5,432.5C 23.8333,432.5 37.1667,432.5 50.5,432.5C 50.5,431.5 50.5,430.5 50.5,429.5 Z"/></g>
<g><path style="opacity:0.982" fill="#05a9ef" d="M 92.5,432.5 C 111.5,432.5 130.5,432.5 149.5,432.5C 143.833,438.833 137.833,444.833 131.5,450.5C 113.007,449.503 94.3408,449.17 75.5,449.5C 80.8333,443.5 86.5,437.833 92.5,432.5 Z"/></g>
<g><path style="opacity:0.99" fill="#04a7f2" d="M 64.5,448.5 C 66.4807,450.144 68.4807,451.81 70.5,453.5C 72.1856,452.143 73.8523,450.81 75.5,449.5C 94.3408,449.17 113.007,449.503 131.5,450.5C 127.167,455.5 122.5,460.167 117.5,464.5C 86.1667,463.167 54.8333,463.167 23.5,464.5C 19.5166,460.55 16.5166,455.883 14.5,450.5C 31.2647,449.847 47.9314,449.18 64.5,448.5 Z"/></g>
<g><path style="opacity:0.991" fill="#03a4f5" d="M 117.5,464.5 C 110.833,471.833 103.833,478.833 96.5,485.5C 78.8333,485.5 61.1667,485.5 43.5,485.5C 36.131,479.132 29.4643,472.132 23.5,464.5C 54.8333,463.167 86.1667,463.167 117.5,464.5 Z"/></g>
<g><path style="opacity:0.9" fill="#01a0fa" d="M 43.5,485.5 C 61.1667,485.5 78.8333,485.5 96.5,485.5C 88.1667,494.167 79.8333,502.833 71.5,511.5C 70.5,511.5 69.5,511.5 68.5,511.5C 60.1667,502.833 51.8333,494.167 43.5,485.5 Z"/></g>
</svg>
